<?xml version="1.0" standalone="no"?>
<!DOCTYPE svg PUBLIC "-//W3C//DTD SVG 20010904//EN"
 "http://www.w3.org/TR/2001/REC-SVG-20010904/DTD/svg10.dtd">
<svg version="1.0" xmlns="http://www.w3.org/2000/svg"
 width="612.000000pt" height="408.000000pt" viewBox="0 0 612.000000 408.000000"
 preserveAspectRatio="xMidYMid meet">

<g transform="translate(0.000000,408.000000) scale(0.100000,-0.100000)"
fill="#000000" stroke="none">
<path d="M1 3638 c1 -358 4 -449 15 -476 8 -18 18 -30 23 -27 5 3 17 29 27 58
21 64 60 118 80 110 31 -12 48 -66 49 -156 1 -48 6 -92 11 -97 14 -14 50 58
65 128 6 28 14 52 18 52 4 0 17 -14 30 -30 46 -63 64 -289 34 -443 -15 -77
-15 -93 -3 -120 8 -18 14 -58 14 -89 0 -51 -5 -65 -46 -125 -25 -37 -64 -102
-87 -143 -38 -66 -42 -80 -36 -118 6 -39 4 -45 -27 -74 -29 -27 -33 -37 -33
-84 -1 -30 -6 -59 -11 -64 -6 -6 -36 -12 -67 -13 l-57 -2 0 -962 0 -963 3060
0 3060 0 0 2040 0 2040 -3060 0 -3060 0 1 -442z m732 28 c12 -30 -19 -51 -73
-49 -64 1 -81 15 -55 43 22 25 119 29 128 6z m-199 -276 c20 -7 26 -16 26 -40
0 -25 -4 -30 -22 -29 -36 1 -93 25 -92 37 1 7 2 19 3 27 1 17 46 20 85 5z
m2856 -348 c0 -4 15 -23 32 -42 39 -42 93 -122 90 -133 -1 -5 2 -6 7 -2 6 3
18 -9 27 -26 12 -24 18 -28 24 -18 7 10 13 7 29 -12 11 -13 20 -27 21 -31 0
-3 9 -27 19 -51 21 -50 10 -48 111 -22 22 5 23 5 7 -5 -12 -8 -16 -18 -11 -32
5 -17 3 -20 -11 -14 -14 5 -16 2 -11 -16 3 -13 6 -29 6 -37 0 -8 6 -11 15 -7
11 4 15 -1 15 -18 0 -26 -48 -63 -91 -69 -18 -3 -24 -11 -25 -33 -1 -16 -13
-53 -27 -81 -48 -94 -68 -157 -82 -254 -18 -132 -48 -175 -89 -130 -26 29 -39
87 -37 163 2 63 0 68 -26 85 -18 12 -46 18 -87 18 -56 0 -60 2 -69 28 -7 22
-5 32 7 46 9 10 16 23 16 30 0 7 11 22 25 33 14 11 23 23 20 28 -2 4 10 7 28
6 27 -1 32 -6 35 -29 7 -61 57 -16 68 61 5 42 3 56 -10 71 -9 10 -26 41 -36
69 -18 46 -18 53 -4 81 8 17 20 33 25 37 6 3 3 12 -8 21 -16 13 -14 14 26 8
37 -5 42 -4 32 8 -6 8 -32 22 -57 32 l-45 17 26 14 c15 8 36 14 46 14 11 0 19
4 19 10 0 18 -59 40 -108 40 -60 0 -81 18 -64 55 7 14 18 25 27 25 8 0 21 13
30 29 13 26 26 35 58 40 4 0 7 -2 7 -7z m-2680 -32 c0 -5 -4 -10 -10 -10 -5 0
-10 5 -10 10 0 6 5 10 10 10 6 0 10 -4 10 -10z m2541 -177 c8 -10 16 -31 18
-48 2 -16 8 -39 14 -50 6 -11 10 -24 9 -29 -2 -5 -4 -30 -6 -55 l-3 -46 -37 3
c-20 2 -44 -2 -52 -9 -20 -17 -26 -8 -27 48 -1 34 6 65 26 105 15 31 27 66 27
77 0 26 12 27 31 4z m-2535 -67 c-5 -30 -12 -46 -22 -46 -8 0 -14 6 -15 13 0
10 -2 10 -6 0 -2 -7 -9 -13 -14 -13 -14 0 -11 38 4 47 7 4 18 21 25 37 19 43
36 19 28 -38z m483 -50 c31 -17 42 -17 101 -6 69 13 182 2 203 -19 14 -14 31
-83 92 -376 31 -143 64 -300 75 -350 24 -109 25 -121 3 -129 -17 -7 -360 2
-399 9 -24 5 -27 14 -75 230 -17 77 -40 174 -51 215 -11 41 -36 145 -56 230
-36 152 -38 155 -70 169 -20 9 -32 22 -32 34 0 18 6 19 88 15 57 -3 99 -10
121 -22z m2131 -172 c0 -7 6 -15 13 -17 6 -3 2 -6 -9 -6 -12 -1 -36 5 -54 12
-28 13 -30 15 -16 29 8 9 12 19 8 23 -4 5 8 0 26 -11 17 -10 32 -24 32 -30z
m-2 -61 c3 -17 -2 -23 -16 -23 -11 0 -25 -6 -31 -14 -11 -13 -51 -11 -51 3 0
4 -14 8 -31 9 -32 3 -73 31 -47 33 44 4 82 10 85 13 2 2 23 3 46 2 35 -1 43
-5 45 -23z m-2783 -33 c6 -19 -9 -50 -24 -50 -3 0 -14 7 -24 15 -18 13 -18 14
0 33 24 26 40 27 48 2z m2928 -507 c-7 -2 -21 -2 -30 0 -10 3 -4 5 12 5 17 0
24 -2 18 -5z m-36 -51 c23 -21 31 -52 13 -52 -5 0 -10 -10 -10 -22 0 -19 -2
-20 -10 -8 -6 10 -10 11 -10 3 0 -36 -45 15 -69 79 -10 26 -9 27 26 24 21 -2
47 -13 60 -24z m1333 -15 c0 -7 -28 -55 -63 -107 -64 -96 -262 -425 -273 -454
-4 -11 -1 -16 10 -16 18 0 57 -20 67 -34 17 -23 19 -133 4 -189 -8 -32 -15
-60 -15 -62 0 -9 784 -4 828 4 23 5 42 5 42 1 0 -9 -81 -33 -182 -55 -43 -9
-80 -20 -82 -24 -3 -4 -38 -6 -78 -3 -59 3 -112 -4 -273 -37 -110 -22 -240
-51 -290 -64 -77 -20 -90 -26 -87 -43 5 -30 41 -51 107 -64 81 -15 231 -63
215 -68 -9 -3 -9 -6 -1 -11 7 -5 2 -12 -14 -21 -30 -16 -72 -5 -137 37 -46 28
-44 28 -52 1 -4 -14 -9 -19 -13 -12 -5 6 -28 18 -52 28 -24 9 -58 28 -76 41
-43 33 -54 32 -95 -13 l-35 -39 -118 11 c-111 10 -116 12 -87 24 86 39 -9 48
-335 33 -148 -7 -373 -19 -500 -27 -126 -7 -270 -14 -319 -14 l-88 0 6 68 c3
37 8 111 12 165 l6 97 -106 0 -106 0 7 -45 c6 -46 -1 -54 -42 -45 -5 1 -7 -2
-3 -5 14 -14 -13 -45 -37 -45 -28 0 -32 12 -11 29 25 21 26 50 3 63 -12 7 -26
11 -30 10 -10 -3 1 90 20 156 8 30 13 65 10 78 -2 13 1 28 8 34 10 8 5 18 -21
44 -39 39 -42 52 -15 59 24 6 24 53 1 67 -8 5 -11 10 -7 10 4 0 -3 16 -17 36
-23 34 -23 38 -10 71 9 19 26 46 40 59 13 14 24 29 24 34 0 17 70 23 96 9 31
-16 124 -142 137 -185 14 -47 1 -95 -38 -141 -41 -49 -42 -53 -11 -53 65 0 84
-11 105 -60 12 -27 21 -58 21 -69 0 -17 9 -21 68 -27 37 -5 159 -8 272 -8 113
1 194 -2 180 -6 -14 -4 -52 -6 -85 -4 -48 2 -53 1 -25 -5 l35 -8 -33 -8 c-27
-6 -59 -28 -35 -24 22 4 31 -3 37 -26 5 -20 13 -25 38 -25 34 0 118 36 118 51
0 5 12 9 28 10 23 0 24 1 7 8 -13 6 12 11 75 15 52 3 102 6 110 7 15 2 85 -6
164 -17 22 -4 54 -14 71 -24 21 -12 60 -19 121 -21 l89 -4 3 63 c3 58 5 63 24
60 18 -2 24 -14 34 -63 6 -33 10 -63 7 -67 -2 -4 6 -21 18 -38 22 -29 25 -30
103 -29 45 1 106 4 136 8 l55 7 -36 16 c-39 17 -90 77 -67 79 7 0 3 5 -9 11
-13 6 -23 19 -23 30 0 14 8 18 38 19 28 2 31 3 10 6 -64 10 -57 59 10 66 20 2
5 4 -34 5 -62 2 -74 5 -87 25 l-16 22 0 -22 c-1 -14 -7 -23 -16 -23 -18 0 -20
27 -2 33 6 2 9 8 5 12 -11 11 -28 -4 -28 -26 0 -10 -6 -20 -12 -20 -7 -1 -24
-3 -38 -6 -52 -8 -558 -15 -629 -8 l-75 7 34 14 c47 20 170 97 170 106 0 5 -4
8 -9 8 -5 0 -12 7 -15 16 -5 13 0 15 31 9 36 -5 43 -2 108 54 70 60 114 107
212 231 49 61 51 65 31 70 -31 8 -34 28 -6 35 14 4 28 5 34 4 21 -4 33 2 39
19 5 17 21 20 133 25 126 7 265 32 447 81 104 28 135 31 135 13z m-3054 -211
c12 -9 21 -52 35 -167 11 -85 18 -166 17 -180 l-3 -27 -63 20 c-71 21 -76 29
-121 175 -36 116 -67 123 -51 12 5 -35 10 -76 10 -90 0 -25 0 -25 -60 -18 -32
4 -74 15 -92 26 -30 17 -36 29 -60 119 -43 158 -62 142 172 142 138 0 204 -4
216 -12z m642 -223 l52 -48 -48 -3 c-26 -2 -65 -4 -87 -5 l-40 -2 2 44 c4 77
47 82 121 14z m263 -641 c17 -2 39 -42 39 -72 0 -10 -9 -22 -21 -25 -12 -4
-17 -10 -11 -14 5 -3 11 -15 13 -26 4 -17 15 -21 84 -27 44 -4 370 -9 725 -12
355 -2 658 -5 674 -5 l28 -1 -17 -28 c-10 -15 -28 -38 -41 -53 -27 -28 -30
-62 -9 -99 8 -14 14 -28 15 -31 0 -7 -87 -34 -140 -44 -73 -14 -110 -26 -105
-35 4 -6 -2 -10 -13 -10 -28 0 -82 -29 -82 -44 0 -10 35 -14 142 -18 121 -5
143 -8 155 -23 16 -23 27 -24 246 -24 97 -1 177 -5 177 -9 0 -5 69 -14 153
-20 259 -19 269 -21 262 -43 -7 -23 3 -25 19 -4 7 9 16 12 25 6 27 -17 -37
-96 -76 -94 -19 0 -20 0 -3 -4 32 -7 23 -20 -17 -28 -21 -4 -524 -4 -1118 0
-594 4 -1089 7 -1100 7 -61 0 -398 20 -410 24 -22 9 -18 22 8 27 16 3 14 5 -9
6 -47 2 -55 17 -39 83 21 91 46 162 66 183 25 28 5 56 -30 43 -30 -11 -71 14
-71 42 0 12 -7 20 -17 21 -10 0 -35 2 -56 4 -29 3 -42 -1 -55 -15 -25 -30 -51
-25 -67 14 -18 43 -29 50 -55 36 -12 -6 -33 -12 -48 -13 -18 -2 -28 -9 -30
-22 -2 -11 -7 -24 -11 -28 -15 -15 -58 12 -75 47 -14 29 -20 34 -34 27 -18 -9
-31 -5 -97 32 -43 24 -61 71 -31 83 8 3 71 -9 141 -26 l126 -32 141 11 c77 6
174 20 214 31 83 23 98 24 89 10 -10 -17 42 -11 56 6 11 13 10 15 -6 12 -10
-1 -20 3 -23 11 -5 14 -2 14 48 -1 8 -3 12 -3 8 -1 -4 2 -4 11 -1 20 5 13 1
15 -21 9 -18 -4 -25 -3 -21 4 3 5 27 10 53 10 57 0 94 9 86 21 -3 5 -27 9 -55
9 -27 0 -49 2 -49 5 0 13 39 47 48 41 6 -4 8 2 5 14 -4 14 0 20 11 20 9 0 16
3 16 8 0 6 146 9 191 4z m2516 -106 c19 -19 -39 -36 -147 -42 -57 -3 -67 -1
-78 16 -7 12 -10 25 -7 30 5 9 223 5 232 -4z m-1270 -2 c-3 -3 -12 -4 -19 -1
-8 3 -5 6 6 6 11 1 17 -2 13 -5z m911 -43 c24 -15 -10 -19 -38 -4 l-25 13 25
0 c14 0 31 -4 38 -9z m-2578 -332 c0 -3 -7 -12 -15 -19 -12 -10 -15 -9 -15 6
0 14 -2 16 -9 6 -5 -8 -23 -13 -42 -12 -59 4 -118 -11 -124 -31 -9 -28 0 -36
48 -44 59 -10 66 -17 32 -31 -17 -7 -23 -13 -14 -14 15 0 29 -19 29 -39 0 -4
-8 -8 -17 -8 -64 1 -73 -3 -73 -29 0 -22 -3 -24 -14 -15 -8 7 -12 20 -9 31 7
25 -36 37 -69 19 -12 -7 -48 -18 -78 -24 -57 -12 -72 -28 -32 -33 12 -2 20 -8
17 -13 -9 -13 -53 -11 -58 4 -3 9 -7 9 -19 -1 -18 -15 -252 -23 -383 -13 -76
6 -80 7 -80 31 0 35 -68 48 -130 24 -36 -13 -48 -14 -60 -4 -22 18 -11 27 41
33 26 2 49 10 53 15 4 6 69 20 145 31 76 11 141 23 144 26 4 3 6 17 7 32 0 15
8 30 20 37 11 6 24 16 30 23 5 7 35 14 65 16 96 6 610 3 610 -4z m-763 -55
c-3 -3 -12 -4 -19 -1 -8 3 -5 6 6 6 11 1 17 -2 13 -5z"/>
<path d="M3581 2725 c0 -21 28 -78 29 -59 0 7 -7 27 -15 45 -10 24 -14 28 -14
14z"/>
<path d="M3626 2627 c3 -10 9 -15 12 -12 3 3 0 11 -7 18 -10 9 -11 8 -5 -6z"/>
<path d="M4413 1123 c9 -2 23 -2 30 0 6 3 -1 5 -18 5 -16 0 -22 -2 -12 -5z"/>
<path d="M3078 1083 c6 -2 18 -2 25 0 6 3 1 5 -13 5 -14 0 -19 -2 -12 -5z"/>
<path d="M2450 780 c0 -13 20 -13 40 0 12 8 9 10 -12 10 -16 0 -28 -4 -28 -10z"/>
<path d="M2488 693 c7 -3 16 -2 19 1 4 3 -2 6 -13 5 -11 0 -14 -3 -6 -6z"/>
<path d="M2224 449 c24 -19 31 -20 54 -9 15 7 56 16 92 20 58 6 52 7 -54 9
l-119 1 27 -21z"/>
<path d="M3865 420 c-3 -5 1 -10 9 -10 9 0 16 5 16 10 0 6 -4 10 -9 10 -6 0
-13 -4 -16 -10z"/>
<path d="M3231 390 c-30 -11 -56 -22 -59 -25 -11 -11 19 -4 79 20 76 28 58 33
-20 5z"/>
<path d="M3230 359 c-94 -33 -113 -36 -84 -14 14 11 15 14 4 15 -23 0 -45 -17
-45 -36 0 -9 -8 -22 -18 -28 -14 -9 -21 -7 -31 7 -12 16 -18 16 -53 5 -35 -10
-40 -16 -39 -40 1 -33 4 -34 64 -9 26 10 103 39 171 63 69 24 126 49 129 56 5
16 0 15 -98 -19z"/>
<path d="M3578 243 c-20 -5 -29 -25 -19 -42 12 -19 41 -1 41 25 0 13 -1 23 -2
23 -2 -1 -10 -3 -20 -6z"/>
<path d="M2250 70 c0 -5 11 -10 25 -10 14 0 25 5 25 10 0 6 -11 10 -25 10 -14
0 -25 -4 -25 -10z"/>
<path d="M3418 73 c-87 -6 -70 -23 22 -23 47 0 80 4 80 10 0 6 -4 10 -9 10 -5
0 -15 1 -23 3 -7 2 -39 1 -70 0z"/>
<path d="M162 2983 c-14 -26 -16 -73 -2 -73 12 0 23 41 18 71 l-3 24 -13 -22z"/>
</g>
</svg>
