<?xml version="1.0" standalone="no"?>
<!DOCTYPE svg PUBLIC "-//W3C//DTD SVG 20010904//EN"
 "http://www.w3.org/TR/2001/REC-SVG-20010904/DTD/svg10.dtd">
<svg version="1.0" xmlns="http://www.w3.org/2000/svg"
 width="612.000000pt" height="408.000000pt" viewBox="0 0 612.000000 408.000000"
 preserveAspectRatio="xMidYMid meet">

<g transform="translate(0.000000,408.000000) scale(0.100000,-0.100000)"
fill="#000000" stroke="none">
<path d="M1570 3972 c0 -60 4 -133 10 -163 5 -30 19 -268 30 -529 11 -261 22
-525 25 -586 5 -85 3 -113 -7 -121 -8 -7 -132 -12 -350 -15 -185 -2 -339 -6
-343 -9 -6 -7 11 -337 21 -397 8 -52 23 -27 17 31 -9 94 -21 91 321 95 196 3
300 1 309 -6 7 -6 40 -14 75 -18 86 -9 92 -3 87 99 -10 189 -66 1649 -65 1710
0 14 -10 17 -65 17 l-65 0 0 -108z"/>
<path d="M2188 3836 l3 -243 -24 -29 c-21 -25 -47 -70 -113 -194 -18 -33 -18
-100 0 -147 8 -21 17 -50 20 -65 3 -14 19 -39 34 -55 56 -57 93 -133 97 -198
9 -152 9 -154 -16 -188 -35 -47 -49 -84 -49 -133 0 -43 -5 -71 -41 -212 -11
-40 -19 -92 -19 -116 0 -33 -7 -52 -25 -75 -16 -18 -31 -55 -39 -93 -26 -119
-49 -166 -80 -161 -20 4 -74 0 -333 -24 -69 -6 -88 -29 -30 -35 l32 -3 0 -105
c0 -87 3 -110 20 -137 26 -42 36 -46 115 -47 54 -1 72 -6 106 -29 55 -37 94
-109 94 -175 0 -63 -24 -90 -26 -28 -1 34 -45 146 -58 146 -2 0 3 -20 12 -45
13 -42 13 -47 -2 -64 -9 -10 -35 -21 -57 -24 -28 -4 -53 -17 -83 -45 -24 -22
-53 -43 -65 -47 -15 -4 -20 -12 -17 -22 3 -8 6 -19 6 -24 0 -15 57 -39 95 -39
21 0 35 -5 35 -13 0 -14 -43 -136 -58 -164 -17 -30 -11 -86 10 -106 34 -33 70
-39 123 -21 44 14 49 14 57 0 5 -9 17 -16 27 -16 25 0 73 25 64 33 -3 4 1 7
10 7 10 0 17 5 17 10 0 6 7 10 14 10 15 0 66 -59 66 -77 0 -5 18 -29 40 -53
22 -24 40 -45 40 -47 0 -2 12 -15 28 -28 34 -31 72 -31 177 -4 44 11 90 22
102 22 11 1 19 6 15 11 -3 5 9 6 27 3 18 -4 30 -3 27 1 -2 4 87 7 197 7 304 0
328 15 333 205 4 147 32 236 87 281 14 11 20 31 22 71 7 119 81 201 232 260
42 16 86 36 98 44 11 7 62 22 111 32 101 21 162 58 216 132 45 61 91 53 163
-29 16 -19 36 -40 43 -47 30 -30 71 -158 97 -299 15 -82 33 -161 40 -175 7
-14 15 -51 19 -83 6 -59 -3 -94 -30 -110 -17 -10 -18 -55 -1 -82 38 -64 61
-85 95 -85 18 0 42 -4 52 -10 10 -5 33 -11 51 -12 34 -3 60 -21 72 -51 3 -9
15 -17 25 -17 10 0 36 -13 58 -30 21 -16 46 -30 54 -30 9 0 24 -6 35 -14 33
-23 102 -30 128 -13 12 7 38 19 58 26 20 6 51 23 69 36 24 18 47 25 78 25 42
0 44 2 59 39 11 27 24 43 43 50 26 9 28 13 23 48 -4 28 -1 42 11 52 9 7 16 10
16 7 0 -4 9 -2 20 4 16 9 20 8 20 -5 0 -8 3 -15 8 -15 10 0 30 88 38 167 5 45
13 68 28 82 l22 21 -8 -73 c-4 -39 -17 -116 -28 -171 -35 -169 -27 -194 84
-286 l76 -63 -6 -107 c-7 -108 0 -185 15 -175 5 3 11 -1 14 -9 3 -8 14 -12 25
-10 10 3 34 -4 54 -16 45 -26 48 -21 48 106 l0 94 153 -104 c85 -57 180 -119
211 -136 32 -18 60 -40 64 -49 3 -9 9 -18 14 -21 4 -3 11 -52 14 -108 l7 -102
64 0 63 0 0 379 0 378 -132 90 c-240 163 -622 381 -688 393 -34 6 -34 6 -13
18 18 10 30 9 63 -4 33 -13 43 -14 56 -4 10 9 11 15 4 20 -7 4 -4 12 8 23 16
15 36 15 203 6 101 -5 224 -11 272 -13 63 -2 91 -7 98 -17 12 -18 3 -71 -14
-84 -21 -16 -37 -135 -22 -160 7 -11 11 -40 11 -65 -1 -36 3 -49 24 -67 14
-12 33 -23 43 -23 9 0 17 -7 17 -15 0 -27 17 -16 18 13 0 15 6 68 11 117 15
129 14 177 -8 226 -14 31 -17 48 -10 61 6 10 9 38 7 61 -4 41 -4 41 -15 15 -7
-14 -17 -29 -24 -34 -9 -5 -11 14 -5 87 17 223 22 258 37 276 8 10 21 30 29
46 13 25 12 29 -8 43 -28 19 -28 36 -1 60 36 33 43 64 19 95 -25 35 -25 55 0
71 14 9 20 24 20 52 0 33 -2 37 -15 26 -12 -10 -20 -9 -40 4 -29 19 -51 21
-58 4 -4 -10 -6 -10 -6 0 -1 6 -13 12 -27 12 -21 0 -25 -4 -22 -22 2 -13 9
-22 16 -21 7 2 12 -8 12 -26 0 -23 6 -31 30 -40 37 -13 39 -38 3 -47 -25 -7
-129 9 -140 20 -3 3 -1 10 3 18 4 7 8 34 9 60 0 46 -1 48 -30 53 -85 13 -232
25 -302 25 -82 0 -285 23 -363 42 -67 16 -200 35 -205 29 -11 -10 -4 -55 12
-81 15 -27 15 -32 0 -81 -16 -48 -16 -54 -1 -70 14 -15 14 -28 6 -91 -9 -67
-8 -74 9 -87 15 -10 19 -27 21 -75 1 -43 2 -49 5 -21 8 91 5 88 88 83 41 -3
80 -9 87 -15 7 -5 35 -10 62 -11 26 -1 62 -8 78 -17 17 -8 41 -12 54 -9 39 10
54 -11 54 -75 l0 -56 18 26 c9 14 23 32 30 40 7 8 19 22 26 33 12 18 21 18
182 9 93 -6 187 -8 209 -6 22 3 53 0 69 -6 28 -11 28 -12 21 -69 -4 -33 -14
-65 -25 -77 -14 -15 -17 -30 -13 -61 10 -79 -18 -97 -113 -73 -49 13 -44 29 8
29 21 0 29 6 34 25 3 14 18 32 33 40 l26 14 -32 1 c-18 0 -33 -5 -33 -10 0
-17 -63 -40 -77 -28 -9 7 -17 5 -29 -6 -19 -19 -33 -17 -48 7 -8 13 -7 20 4
27 8 5 12 11 9 14 -11 11 -118 28 -135 22 -16 -6 -16 -8 0 -25 16 -18 16 -20
1 -29 -12 -6 -31 -4 -59 6 -22 9 -68 18 -100 21 -38 4 -61 11 -64 20 -4 11 5
13 47 7 28 -3 75 -9 104 -12 l52 -6 -29 17 c-17 8 -47 17 -69 20 -22 2 -44 8
-50 14 -6 6 -19 11 -29 11 -10 0 -26 4 -36 9 -9 5 -50 14 -91 20 -41 6 -80 16
-87 22 -10 8 -18 3 -34 -23 -13 -21 -16 -34 -9 -37 6 -2 15 2 19 9 5 8 8 3 8
-11 0 -13 1 -28 2 -34 8 -37 0 -43 -57 -43 -32 0 -62 4 -68 8 -5 4 -22 8 -37
8 -15 0 -58 19 -95 42 -72 46 -193 146 -193 161 0 28 84 -5 171 -68 27 -19 49
-32 49 -29 0 32 -206 169 -271 181 -54 10 -87 42 -101 100 -6 28 -19 59 -28
70 -31 38 -52 101 -45 134 7 32 -10 101 -25 101 -4 0 -8 -18 -8 -39 -1 -34 12
-80 43 -153 12 -29 -11 -20 -24 10 -44 94 -163 404 -190 492 -34 110 -94 250
-167 387 -24 46 -44 96 -44 113 0 20 -6 33 -17 37 -10 4 -29 17 -43 29 -61 56
-78 68 -130 91 -30 13 -74 33 -97 45 l-42 21 2 428 2 429 -92 0 c-90 0 -93 -1
-93 -22 -3 -244 -18 -529 -30 -547 -5 -9 -13 -9 -33 0 -21 9 -33 9 -52 1 -32
-15 -72 -15 -80 -2 -3 6 -13 10 -20 10 -20 0 -30 -47 -15 -65 15 -18 56 -20
63 -2 4 10 6 10 6 0 2 -27 93 -10 113 21 14 21 28 -47 28 -133 0 -91 14 -141
41 -141 20 0 39 -20 39 -42 0 -15 -4 -16 -26 -8 -33 13 -34 13 -34 -8 0 -25
-36 -45 -60 -32 -10 5 -28 10 -39 10 -12 0 -21 7 -21 15 0 9 -9 15 -24 15 -16
0 -44 -21 -87 -66 -75 -77 -102 -120 -134 -210 -29 -83 -45 -94 -86 -60 -28
24 -42 30 -54 24 -3 -2 -16 14 -30 35 -34 49 -39 47 -15 -5 11 -24 20 -63 20
-87 0 -40 -27 -177 -49 -246 -6 -16 -15 -52 -21 -80 -6 -27 -23 -66 -38 -85
-15 -19 -36 -52 -46 -72 -11 -21 -23 -38 -27 -38 -4 0 -32 29 -63 65 l-54 64
-28 -22 c-16 -12 -25 -16 -20 -9 4 7 40 37 81 66 79 59 109 94 148 172 37 73
81 227 74 256 -8 30 -63 108 -77 108 -17 0 -11 -37 12 -77 37 -62 31 -133 -18
-212 -21 -34 -58 -77 -81 -93 -35 -26 -45 -29 -70 -21 -24 8 -28 15 -28 47 0
29 -6 43 -27 60 -32 25 -35 47 -12 71 9 9 13 19 10 23 -4 3 -10 2 -14 -4 -9
-14 -72 -26 -72 -14 0 6 6 10 13 10 12 0 13 10 9 79 -2 23 -3 23 -20 8 -20
-18 -47 -23 -37 -7 3 5 -5 33 -19 62 -45 97 -74 173 -69 180 7 13 33 9 33 -6
0 -22 40 -66 60 -66 10 0 20 -4 22 -8 2 -5 26 -12 54 -15 l52 -6 7 36 c7 41
-3 53 -49 53 l-28 0 23 21 24 20 -27 -5 c-34 -8 -42 12 -16 40 28 32 6 46 -49
31 -32 -8 -47 -8 -65 2 -36 19 -76 78 -83 122 -4 21 -11 37 -16 33 -5 -3 -9 1
-9 10 0 8 3 16 8 18 4 2 15 20 24 41 18 38 55 62 73 46 5 -5 19 -9 31 -9 12 0
27 -7 34 -15 7 -8 19 -15 28 -15 9 0 25 -9 37 -20 30 -28 57 -17 49 19 -4 19
-3 22 5 11 12 -17 20 -11 26 20 3 15 -3 29 -18 41 -12 10 -16 18 -9 19 6 0 12
-4 12 -10 0 -5 5 -10 10 -10 18 0 11 27 -13 51 -13 13 -26 32 -30 42 -3 9 -15
17 -26 17 -10 0 -33 13 -49 28 -58 54 -123 86 -91 45 13 -16 12 -17 -3 -5 -10
8 -26 11 -39 7 -14 -5 -19 -3 -15 3 10 17 -12 24 -34 10 -26 -17 -25 -26 3
-31 l22 -4 -22 -2 c-13 0 -23 -5 -23 -11 0 -5 -4 -10 -10 -10 -5 0 -10 14 -10
30 0 17 -4 30 -9 30 -23 0 -41 -14 -41 -31 0 -10 -4 -19 -10 -19 -5 0 -10 7
-10 17 0 14 -2 15 -17 1 -10 -8 -28 -18 -41 -21 -19 -4 -21 -3 -11 9 6 8 29
24 50 36 22 12 39 25 39 29 0 4 9 11 21 14 20 7 20 13 18 138 -2 73 -6 137
-10 142 -9 12 -9 15 -9 60 l0 35 -107 0 -108 0 3 -244z m157 -1056 c-3 -5 -21
-10 -38 -10 -24 0 -28 3 -17 10 20 13 63 13 55 0z m630 -495 c-13 -50 -26
-103 -30 -120 -7 -30 -7 -30 -21 16 -14 47 -14 47 28 122 23 42 43 75 45 74 1
-2 -9 -43 -22 -92z m-165 -4 c0 -12 -26 -21 -61 -21 -34 0 -39 17 -6 23 41 8
67 7 67 -2z m-46 -106 c-7 -17 -30 -20 -38 -6 -4 5 -3 16 0 25 5 12 10 13 25
6 10 -6 16 -17 13 -25z m2416 -116 c52 -11 138 -25 190 -31 97 -10 128 -24
117 -52 -8 -19 -60 -21 -138 -5 -30 6 -74 13 -99 14 -39 3 -148 25 -202 41
-40 12 -25 68 16 59 11 -3 64 -15 116 -26z m681 -37 c-9 -25 -9 -24 -10 18 0
36 2 41 10 27 7 -12 7 -27 0 -45z m-3035 -119 c-7 -7 -25 23 -31 52 -6 27 -5
26 14 -9 11 -22 19 -41 17 -43z m719 47 c25 -28 13 -50 -30 -50 -28 0 -35 4
-35 19 0 52 32 67 65 31z m1590 -39 c22 -6 87 -17 145 -26 160 -23 160 -23
160 -51 0 -22 -4 -24 -42 -24 -24 1 -61 5 -83 9 -22 5 -89 19 -150 31 -122 24
-147 37 -120 64 10 9 25 15 34 12 9 -3 34 -9 56 -15z m-3180 -1 c3 -5 -12 -38
-35 -72 -22 -34 -40 -73 -40 -87 0 -15 -4 -31 -8 -36 -8 -12 -67 -55 -75 -55
-2 0 -5 47 -6 104 l-2 105 38 10 c21 5 50 13 66 17 15 3 30 10 33 15 7 12 21
11 29 -1z m3810 -76 c66 -4 134 -8 150 -9 101 -3 107 -5 103 -22 -5 -25 -69
-32 -248 -27 -142 4 -245 19 -256 36 -3 5 -3 15 0 23 5 15 6 15 251 -1z
m-3035 -15 c0 -5 -4 -9 -10 -9 -5 0 -10 7 -10 16 0 8 5 12 10 9 6 -3 10 -10
10 -16z m1955 -70 c11 -17 -1 -21 -15 -4 -8 9 -8 15 -2 15 6 0 14 -5 17 -11z
m595 -238 c0 -5 3 -16 6 -25 5 -13 -1 -16 -29 -16 -43 0 -56 16 -31 35 22 16
54 20 54 6z m-279 -62 c29 -21 38 -39 18 -39 -18 0 -70 41 -64 51 9 13 13 12
46 -12z m-2846 -87 c12 -8 45 -58 45 -68 0 -3 -16 3 -36 15 -19 12 -45 21 -57
21 l-22 1 24 19 c25 22 31 23 46 12z m3033 -16 c2 -9 1 -24 -3 -33 -5 -14 -8
-13 -21 6 -17 24 -12 55 9 49 6 -3 14 -12 15 -22z m140 -8 c26 -22 13 -46 -35
-62 -47 -16 -48 -16 -65 5 -21 25 -23 50 -6 67 14 14 84 7 106 -10z m-2440
-194 c12 -8 29 -28 37 -44 19 -36 19 -127 0 -160 -8 -14 -14 -35 -15 -48 0
-13 -4 -20 -10 -17 -5 3 -10 18 -10 33 0 85 -60 218 -103 230 -20 6 -19 7 8
13 50 11 70 10 93 -7z m-118 -64 c4 -14 2 -41 -3 -60 -5 -19 -7 -52 -4 -75 6
-38 3 -42 -44 -87 -34 -32 -62 -49 -87 -53 -20 -4 -49 -11 -63 -16 -15 -6 -42
-9 -60 -7 -27 2 -34 8 -41 34 -4 17 -16 38 -27 48 -11 10 -17 25 -14 36 4 13
-5 25 -31 42 -33 21 -36 26 -31 56 4 20 1 39 -6 48 -13 16 -50 19 -64 5 -6 -5
-28 -14 -50 -21 -22 -7 -45 -17 -52 -22 -7 -5 -14 -5 -18 2 -3 5 -15 10 -26
10 -37 0 -10 17 34 22 24 3 68 17 98 30 30 14 60 27 67 29 6 2 103 4 214 4
l202 0 6 -25z m-620 -185 c0 -8 -4 -15 -10 -15 -5 0 -7 7 -4 15 4 8 8 15 10
15 2 0 4 -7 4 -15z m30 -5 c0 -5 -2 -10 -4 -10 -3 0 -8 5 -11 10 -3 6 -1 10 4
10 6 0 11 -4 11 -10z"/>
<path d="M4842 3966 c-7 -62 -12 -150 -12 -194 0 -96 -28 -508 -36 -537 -13
-46 -30 -381 -21 -409 12 -36 1 -404 -25 -820 -1 -22 2 -41 9 -43 7 -3 11 24
12 84 1 48 11 223 22 388 11 165 24 372 28 461 4 88 11 166 15 172 4 6 9 96
12 199 2 103 9 238 14 298 26 308 30 366 33 438 2 72 1 77 -19 77 -19 0 -21
-9 -32 -114z"/>
<path d="M4168 3893 c-11 -3 -18 -14 -18 -29 0 -29 11 -31 35 -4 20 22 11 39
-17 33z"/>
<path d="M5853 3685 c-17 -19 -16 -55 1 -55 11 0 46 50 46 67 0 9 -37 0 -47
-12z"/>
<path d="M2806 3362 c-3 -6 1 -13 10 -16 23 -9 28 -2 10 13 -8 7 -17 8 -20 3z"/>
<path d="M4571 3301 c-20 -13 3 -23 33 -15 14 3 23 10 20 15 -7 11 -35 11 -53
0z"/>
<path d="M5690 3169 c-11 -27 -17 -30 -41 -25 -22 4 -33 -1 -53 -25 -49 -58
-29 -93 59 -104 101 -12 117 -12 141 -1 19 9 24 19 24 51 0 67 -9 85 -41 85
-19 0 -34 8 -45 25 -21 33 -29 32 -44 -6z"/>
<path d="M2666 2963 c-9 -9 50 -62 77 -68 41 -11 52 -30 33 -57 -20 -28 -21
-52 -2 -45 7 3 18 1 24 -5 14 -14 25 38 13 61 -6 10 -8 26 -5 37 8 29 -42 70
-93 77 -23 3 -44 3 -47 0z"/>
<path d="M4573 2917 c-60 -41 -29 -63 89 -66 31 0 59 3 62 8 9 14 -4 41 -20
41 -8 0 -23 9 -34 20 -25 25 -56 24 -97 -3z"/>
<path d="M5700 2920 c-13 -9 -13 -12 3 -21 18 -10 18 -12 -3 -26 -14 -10 -19
-21 -15 -35 5 -14 1 -21 -14 -25 -12 -3 -21 -8 -21 -12 0 -4 -16 -13 -35 -20
-19 -7 -35 -15 -36 -19 -7 -64 0 -145 15 -175 17 -38 36 -49 36 -22 0 13 15
15 108 10 106 -6 107 -6 125 19 l17 25 -42 8 c-36 7 -43 12 -43 33 l0 24 163
-1 162 -1 0 24 c0 16 -6 24 -17 24 -10 1 -75 5 -145 9 -120 9 -130 11 -178 42
-49 32 -61 51 -39 64 6 4 8 14 4 23 -3 8 0 19 6 23 17 10 3 39 -18 39 -10 0
-25 -5 -33 -10z"/>
<path d="M4 2740 c0 -58 1 -81 3 -52 2 28 2 76 0 105 -2 28 -3 5 -3 -53z"/>
<path d="M5886 2599 c-10 -12 -15 -23 -12 -26 6 -6 148 -21 209 -22 33 -1 37
2 37 23 0 27 -9 29 -151 40 -57 4 -68 2 -83 -15z"/>
<path d="M5600 2530 c0 -5 9 -10 21 -10 11 0 17 5 14 10 -3 6 -13 10 -21 10
-8 0 -14 -4 -14 -10z"/>
<path d="M5940 2475 c41 -8 99 -21 128 -28 49 -13 52 -13 52 5 0 24 -5 25
-140 31 l-115 6 75 -14z"/>
<path d="M4424 2429 c8 -51 21 -69 30 -43 8 25 -7 77 -24 82 -10 4 -11 -5 -6
-39z"/>
<path d="M0 2236 l0 -206 39 -40 c42 -43 58 -101 40 -148 -14 -37 7 -158 28
-167 34 -12 36 12 15 182 -37 288 -42 346 -42 456 0 58 -3 108 -7 110 -5 3
-23 8 -40 12 l-33 7 0 -206z"/>
<path d="M200 2405 c-13 -16 -3 -20 24 -9 9 3 13 10 10 15 -8 13 -20 11 -34
-6z"/>
<path d="M4454 2305 c4 -22 12 -56 18 -75 l11 -35 9 30 c9 35 -5 87 -29 107
-15 12 -15 9 -9 -27z"/>
<path d="M5608 2213 c12 -2 32 -2 45 0 12 2 2 4 -23 4 -25 0 -35 -2 -22 -4z"/>
<path d="M153 2163 c-7 -2 -13 -20 -13 -39 0 -30 3 -34 25 -34 29 0 75 40 75
65 0 11 -10 15 -37 14 -21 0 -44 -3 -50 -6z"/>
<path d="M5907 2039 c2 -30 -2 -57 -8 -65 -9 -11 -8 -14 7 -11 49 8 90 57 49
57 -13 0 -21 31 -16 63 0 4 -7 7 -18 7 -16 0 -18 -7 -14 -51z"/>
<path d="M971 1953 c0 -10 4 -36 8 -58 8 -38 9 -39 10 -8 1 43 23 48 113 23
118 -32 314 -42 286 -15 -3 4 -52 11 -107 15 -120 11 -206 26 -262 45 -51 18
-49 19 -48 -2z"/>
<path d="M1386 1798 c-13 -103 -29 -159 -49 -169 -11 -7 -128 -12 -290 -13
l-272 -2 5 -34 c3 -19 5 -79 5 -132 0 -94 1 -98 22 -98 30 0 54 10 48 20 -12
19 -16 117 -6 143 10 25 14 27 74 27 35 0 68 -5 74 -11 9 -9 16 -8 28 5 13 13
39 16 135 16 70 0 121 4 125 10 7 12 132 70 150 70 16 0 25 54 25 148 l0 72
-34 0 c-33 0 -34 -1 -40 -52z"/>
<path d="M1533 1633 c9 -2 23 -2 30 0 6 3 -1 5 -18 5 -16 0 -22 -2 -12 -5z"/>
<path d="M1410 1555 c-13 -34 -16 -37 -42 -39 -14 -1 -28 -16 -28 -30 0 -4 7
-6 15 -2 23 8 18 -10 -7 -26 -22 -15 -22 -15 26 -37 56 -24 95 -26 151 -6 22
8 49 12 61 9 12 -3 26 1 34 11 11 13 9 20 -15 45 -26 27 -120 80 -142 80 -6 0
-13 7 -17 15 -9 24 -21 17 -36 -20z m46 -62 c-11 -11 -19 6 -11 24 8 17 8 17
12 0 3 -10 2 -21 -1 -24z m75 -37 c7 4 10 1 7 -7 -3 -8 -13 -13 -23 -12 -10 1
-29 -3 -43 -8 -29 -11 -82 -3 -82 12 0 6 9 7 21 4 15 -5 25 -1 35 13 13 19 16
19 44 6 16 -9 35 -12 41 -8z"/>
<path d="M5790 1496 c0 -8 61 -12 66 -4 3 4 -11 8 -30 8 -20 0 -36 -2 -36 -4z"/>
<path d="M140 1475 c-11 -13 -11 -29 -2 -79 7 -35 12 -82 12 -105 0 -39 2 -42
23 -35 31 9 30 6 18 66 -5 29 -13 79 -17 111 -7 60 -13 67 -34 42z"/>
<path d="M1240 1461 c0 -12 6 -21 15 -21 8 0 15 4 15 9 0 5 -7 14 -15 21 -13
10 -15 9 -15 -9z"/>
<path d="M0 1320 c0 -102 5 -113 39 -91 12 8 12 19 3 67 -7 31 -12 72 -12 91
0 23 -5 33 -15 33 -12 0 -15 -18 -15 -100z"/>
<path d="M1006 1394 c-8 -22 -3 -26 24 -22 22 3 22 3 2 21 -18 17 -20 17 -26
1z"/>
<path d="M1208 1393 c6 -2 18 -2 25 0 6 3 1 5 -13 5 -14 0 -19 -2 -12 -5z"/>
<path d="M1298 1350 c-3 -20 0 -30 9 -30 7 0 13 11 13 24 0 36 -17 41 -22 6z"/>
<path d="M3243 1258 c-18 -22 -33 -51 -33 -64 0 -13 -5 -24 -11 -24 -5 0 -8
-3 -5 -8 5 -8 -26 -108 -37 -119 -4 -3 -4 -16 -1 -28 3 -13 -4 -40 -17 -65
-15 -28 -24 -64 -25 -103 -1 -32 -5 -61 -8 -65 -3 -3 -6 -27 -6 -54 0 -42 3
-48 21 -48 16 0 19 4 14 20 -5 16 -2 20 16 20 18 0 19 -3 9 -15 -6 -8 -8 -20
-4 -27 5 -7 9 -43 9 -80 1 -64 0 -68 -22 -68 -15 0 -23 6 -23 18 -1 37 -40 63
-40 26 0 -46 101 -84 130 -49 7 8 20 15 30 15 33 0 51 44 55 135 7 142 34 297
55 310 18 11 21 -54 4 -102 -20 -58 -20 -227 0 -286 l13 -39 13 31 c7 17 23
43 36 58 28 33 28 27 9 126 -27 140 -18 164 37 105 22 -24 32 -29 38 -19 8 14
0 54 -18 87 -5 10 -13 46 -17 78 -5 39 -18 76 -36 105 -16 25 -29 51 -29 58 0
19 -91 113 -110 112 -8 0 -30 -18 -47 -41z m-126 -520 c-3 -8 -6 -5 -6 6 -1
11 2 17 5 13 3 -3 4 -12 1 -19z"/>
<path d="M3434 1276 c-5 -13 18 -72 45 -116 36 -61 52 -113 46 -151 -4 -24 -2
-52 5 -69 9 -21 9 -33 0 -50 -7 -14 -8 -26 -2 -33 5 -7 12 -38 14 -70 3 -33
11 -62 18 -67 9 -5 11 -22 8 -54 -6 -50 0 -61 22 -45 12 8 12 12 3 16 -7 2
-13 9 -13 14 0 6 5 7 10 4 17 -11 17 112 -1 129 -11 12 -12 63 -1 70 14 8 63
-111 73 -176 4 -35 13 -77 17 -93 11 -37 0 -71 -27 -80 -11 -3 -29 -17 -40
-30 l-19 -25 -12 30 c-11 27 -15 29 -49 24 -27 -4 -41 -2 -50 10 -7 9 -22 16
-32 16 -16 0 -18 -5 -13 -37 3 -20 12 -43 20 -50 8 -8 14 -23 14 -34 0 -23 26
-76 48 -98 12 -13 14 -13 10 -1 -2 7 4 22 14 32 10 10 18 26 18 36 0 19 18 42
33 42 6 0 8 -28 4 -67 -7 -84 -15 -107 -32 -93 -6 5 -15 7 -19 3 -4 -4 -11 -1
-15 6 -11 17 -128 23 -153 7 -10 -6 -18 -20 -18 -31 1 -27 24 -56 41 -50 10 4
18 -8 27 -37 8 -24 20 -50 28 -59 13 -14 9 -19 -36 -43 -28 -15 -49 -33 -47
-39 3 -9 92 -13 325 -15 l322 -2 0 34 c0 18 -7 53 -15 76 -8 23 -20 83 -26
134 -6 50 -26 144 -45 209 -19 66 -34 129 -34 140 -1 30 -36 107 -50 107 -6 0
-16 -13 -21 -30 -11 -31 -29 -41 -29 -17 0 20 -41 141 -50 147 -12 8 -27 41
-49 108 -23 68 -73 155 -100 175 -18 12 -48 84 -53 126 -2 18 -11 27 -34 33
-19 5 -34 16 -37 28 -6 23 -35 27 -43 6z m96 -1087 c0 -13 -38 -11 -46 2 -9
16 18 30 33 17 7 -6 13 -14 13 -19z"/>
<path d="M1082 1248 c3 -7 13 -15 24 -17 16 -3 17 -1 5 13 -16 19 -34 21 -29
4z"/>
<path d="M1438 1253 c-10 -2 -18 -9 -18 -15 0 -5 7 -7 16 -4 9 3 27 6 40 6 14
0 22 4 19 10 -6 10 -26 11 -57 3z"/>
<path d="M1092 1163 c2 -10 13 -19 26 -21 26 -4 28 6 5 24 -25 18 -35 17 -31
-3z"/>
<path d="M6108 1140 c-4 -25 -13 -105 -19 -179 -9 -117 -9 -136 5 -149 9 -9
18 -13 21 -10 3 3 4 90 3 194 -2 124 -6 173 -10 144z"/>
<path d="M1287 1158 c-15 -12 -14 -13 14 -15 26 -2 29 0 19 12 -15 18 -12 18
-33 3z"/>
<path d="M1150 1137 c0 -17 20 -37 37 -37 8 0 10 7 6 18 -11 29 -43 44 -43 19z"/>
<path d="M3760 1094 c0 -2 4 -12 9 -22 5 -9 12 -25 15 -34 6 -19 36 -25 36 -8
0 6 -4 10 -10 10 -5 0 -10 11 -10 24 0 15 -7 26 -20 29 -11 3 -20 3 -20 1z"/>
<path d="M3867 1034 c-12 -12 -8 -70 7 -99 8 -15 33 -45 55 -66 36 -35 43 -38
61 -27 24 15 26 27 5 34 -8 4 -15 12 -15 20 0 21 -20 52 -65 101 -23 24 -44
41 -48 37z"/>
<path d="M3120 983 c0 -13 5 -23 10 -23 13 0 13 11 0 30 -8 12 -10 11 -10 -7z"/>
<path d="M4040 850 c0 -5 7 -10 15 -10 8 0 15 -8 15 -17 0 -10 11 -31 25 -48
36 -45 32 -8 -6 43 -30 40 -49 53 -49 32z"/>
<path d="M1775 840 c-13 -5 -14 -9 -5 -9 8 0 24 4 35 9 13 5 14 9 5 9 -8 0
-24 -4 -35 -9z"/>
<path d="M1608 833 c6 -2 12 -11 12 -19 0 -8 10 -14 23 -14 22 -1 22 -1 2 -16
-16 -12 -17 -18 -8 -33 10 -17 8 -19 -17 -23 -16 -3 -35 -1 -42 4 -9 5 -6 8 9
8 12 0 25 5 28 10 4 6 -9 10 -30 10 -29 0 -36 -3 -31 -15 4 -12 -4 -15 -39
-15 -25 0 -45 -4 -45 -10 0 -5 -16 -10 -35 -10 -24 0 -35 -5 -35 -15 0 -10
-11 -15 -35 -15 -19 0 -35 -4 -35 -10 0 -15 47 -12 73 4 27 17 87 29 87 17 0
-5 -18 -11 -40 -15 -26 -4 -38 -10 -34 -17 3 -6 17 -9 30 -6 14 2 27 0 30 -4
3 -5 -7 -9 -22 -9 -22 0 -25 -2 -14 -15 8 -9 17 -12 24 -6 20 15 69 19 82 6 7
-7 24 -10 38 -8 37 7 32 20 -5 15 -23 -3 -30 -1 -25 7 5 7 17 9 28 5 15 -4 19
-2 16 7 -3 9 -17 13 -36 12 -43 -4 -50 14 -7 19 31 3 39 -1 65 -34 26 -32 35
-37 58 -32 35 9 39 13 22 24 -11 7 -12 10 -2 10 7 0 26 -15 43 -32 16 -18 29
-27 29 -20 0 6 -4 12 -10 12 -5 0 -10 7 -10 15 0 24 26 17 38 -10 6 -14 16
-25 21 -25 17 0 -49 132 -79 160 -3 3 -16 20 -29 38 -14 20 -29 31 -38 28 -7
-3 -16 1 -19 9 -4 8 -16 15 -28 14 -11 0 -15 -3 -8 -6z m-38 -121 c0 -4 -15
-8 -32 -9 -30 -1 -31 -1 -8 7 34 11 40 11 40 2z m80 -42 c0 -5 -7 -10 -16 -10
-8 0 -12 5 -9 10 3 6 10 10 16 10 5 0 9 -4 9 -10z m-132 -18 c2 -7 -2 -10 -12
-6 -9 3 -16 11 -16 16 0 13 23 5 28 -10z m162 -12 c0 -5 -7 -10 -16 -10 -8 0
-12 5 -9 10 3 6 10 10 16 10 5 0 9 -4 9 -10z"/>
<path d="M1030 816 c0 -4 10 -24 22 -45 21 -38 22 -39 4 -85 -10 -25 -22 -46
-27 -46 -5 0 -9 -8 -9 -19 0 -10 -8 -29 -18 -42 -10 -13 -26 -40 -36 -59 -9
-19 -26 -48 -36 -65 -11 -16 -23 -36 -26 -42 -3 -7 -12 -13 -19 -13 -13 0 -27
-36 -30 -80 -1 -14 -14 -42 -27 -62 -17 -24 -24 -46 -21 -62 3 -15 -2 -37 -11
-51 -18 -27 -15 -30 29 -37 15 -3 19 -10 17 -28 -1 -14 -7 -26 -12 -28 -5 -2
-4 -14 2 -28 l11 -24 213 0 c154 0 215 3 220 12 4 6 2 14 -4 16 -16 5 -16 32
0 32 19 0 47 31 41 46 -3 8 1 14 9 14 8 0 24 13 36 30 16 21 31 30 50 30 29 0
266 42 502 89 80 16 164 32 188 36 23 4 42 11 42 16 0 5 22 20 49 34 27 13 52
28 55 33 3 5 -52 -2 -122 -15 -358 -66 -691 -119 -711 -112 -24 10 -61 65 -61
94 0 11 -10 36 -21 55 -12 19 -43 76 -69 125 -76 143 -110 201 -110 190 -1 -5
-8 4 -17 20 -15 26 -18 27 -21 10 -2 -10 1 -21 7 -23 6 -2 11 -13 11 -25 0
-12 9 -37 21 -56 11 -18 18 -36 15 -39 -4 -3 -6 -1 -6 4 0 6 -9 19 -19 31 -10
11 -26 34 -35 52 -24 45 -76 126 -76 117z"/>
<path d="M4012 808 c-7 -7 -12 -16 -12 -21 0 -5 7 -1 16 8 9 9 14 18 12 20 -2
3 -10 -1 -16 -7z"/>
<path d="M1465 790 l-30 -8 27 -1 c15 0 30 4 33 9 3 6 5 9 3 9 -2 -1 -16 -5
-33 -9z"/>
<path d="M1534 782 c5 -8 66 -4 66 4 0 2 -16 4 -36 4 -19 0 -33 -4 -30 -8z"/>
<path d="M1368 763 c6 -2 18 -2 25 0 6 3 1 5 -13 5 -14 0 -19 -2 -12 -5z"/>
<path d="M1464 751 c5 -8 56 -3 56 5 0 2 -14 4 -31 4 -16 0 -28 -4 -25 -9z"/>
<path d="M1398 733 c12 -2 30 -2 40 0 9 3 -1 5 -23 4 -22 0 -30 -2 -17 -4z"/>
<path d="M1328 703 c6 -2 18 -2 25 0 6 3 1 5 -13 5 -14 0 -19 -2 -12 -5z"/>
<path d="M1360 641 c-24 -7 -18 -19 8 -15 6 1 21 2 32 3 11 0 20 6 20 11 0 11
-22 12 -60 1z"/>
<path d="M1300 620 c0 -13 18 -22 24 -11 3 5 -1 11 -9 15 -8 3 -15 1 -15 -4z"/>
<path d="M1388 613 c-16 -2 -28 -9 -28 -15 0 -5 7 -7 16 -4 9 3 27 6 40 6 14
0 22 4 19 10 -3 6 -9 9 -13 9 -4 -1 -19 -4 -34 -6z"/>
<path d="M1470 600 c0 -5 5 -10 11 -10 5 0 7 5 4 10 -3 6 -8 10 -11 10 -2 0
-4 -4 -4 -10z"/>
<path d="M1508 603 c7 -3 16 -2 19 1 4 3 -2 6 -13 5 -11 0 -14 -3 -6 -6z"/>
<path d="M1700 600 c-20 -12 -10 -19 14 -10 11 3 15 9 10 13 -6 3 -16 2 -24
-3z"/>
<path d="M1730 559 c0 -5 5 -7 10 -4 6 3 10 8 10 11 0 2 -4 4 -10 4 -5 0 -10
-5 -10 -11z"/>
<path d="M1755 530 c-3 -5 -1 -10 4 -10 6 0 11 5 11 10 0 6 -2 10 -4 10 -3 0
-8 -4 -11 -10z"/>
<path d="M1848 493 c7 -3 16 -2 19 1 4 3 -2 6 -13 5 -11 0 -14 -3 -6 -6z"/>
<path d="M2960 441 c0 -6 -5 -11 -12 -11 -6 0 -57 -23 -112 -51 -193 -99 -329
-170 -354 -187 l-25 -16 69 -23 c128 -44 123 -43 117 -26 -5 13 -3 13 15 4 18
-9 30 -8 64 10 71 35 72 37 32 76 l-35 34 24 20 c29 22 41 24 34 5 -7 -16 11
-36 33 -36 13 0 13 2 0 11 -12 7 -8 9 15 7 36 -4 41 -31 8 -36 -23 -3 -33 -22
-13 -22 18 0 74 32 88 49 33 42 100 161 91 161 -5 0 -9 8 -7 17 2 10 -4 19
-14 21 -10 2 -18 -1 -18 -7z m-130 -136 c-7 -8 -20 -15 -29 -15 -13 1 -13 3 3
15 26 19 42 19 26 0z"/>
<path d="M1904 418 c-3 -4 2 -8 10 -8 8 0 17 4 20 8 3 5 -2 9 -10 9 -8 0 -17
-4 -20 -9z"/>
<path d="M4073 379 c13 -89 31 -166 43 -184 7 -11 16 -37 19 -57 4 -21 11 -38
16 -38 5 0 9 -4 9 -10 0 -5 -11 -10 -25 -10 -16 0 -25 -6 -25 -15 0 -8 -7 -15
-15 -15 -9 0 -18 7 -21 15 -4 8 -13 15 -21 15 -10 0 -13 -6 -9 -16 3 -9 6 -27
6 -40 l0 -24 125 0 c69 0 125 3 125 6 0 3 -6 18 -14 32 -8 15 -38 74 -66 132
-79 159 -116 222 -135 233 -15 8 -17 5 -12 -24z"/>
<path d="M3037 362 c-2 -4 -7 -19 -11 -35 -8 -33 20 -50 39 -24 20 28 43 21
37 -10 -4 -21 -2 -25 11 -20 18 7 33 -8 17 -18 -16 -10 -12 -46 8 -68 12 -14
14 -21 5 -24 -7 -3 -22 -22 -34 -43 -23 -40 -59 -63 -84 -54 -8 4 -22 3 -30 0
-14 -5 -13 -10 6 -36 l23 -30 148 0 c188 0 182 -7 108 130 -16 30 -30 58 -30
62 0 5 16 25 35 45 27 28 35 45 33 68 -1 17 2 37 7 44 9 15 3 14 -110 -9 -51
-11 -145 -4 -145 10 0 11 -28 21 -33 12z"/>
<path d="M2421 351 c-11 -7 -11 -9 0 -13 8 -3 22 -3 32 0 15 4 16 7 5 13 -16
11 -20 11 -37 0z"/>
<path d="M2153 286 c4 -10 7 -21 7 -26 0 -13 206 -90 240 -90 61 0 16 34 -107
79 -65 24 -124 46 -132 49 -10 4 -13 1 -8 -12z"/>
<path d="M4040 224 c-7 -16 -7 -32 0 -44 5 -10 10 -28 10 -39 0 -17 36 -49 44
-39 13 14 13 59 1 82 -8 16 -15 34 -15 41 0 26 -30 25 -40 -1z"/>
<path d="M5393 218 c13 -31 47 -48 47 -23 0 15 -38 55 -52 55 -4 0 -2 -14 5
-32z"/>
<path d="M2104 216 c-3 -14 -3 -30 1 -36 14 -23 127 -69 382 -156 81 -27 139
-31 169 -10 11 8 56 33 99 57 94 49 135 77 135 90 0 17 -19 9 -132 -53 -130
-72 -154 -75 -258 -32 -73 29 -247 104 -328 140 -29 13 -55 24 -57 24 -3 0 -7
-11 -11 -24z"/>
</g>
</svg>
