<?xml version="1.0" standalone="no"?>
<!DOCTYPE svg PUBLIC "-//W3C//DTD SVG 20010904//EN"
 "http://www.w3.org/TR/2001/REC-SVG-20010904/DTD/svg10.dtd">
<svg version="1.0" xmlns="http://www.w3.org/2000/svg"
 width="612.000000pt" height="408.000000pt" viewBox="0 0 612.000000 408.000000"
 preserveAspectRatio="xMidYMid meet">

<g transform="translate(0.000000,408.000000) scale(0.100000,-0.100000)"
fill="#000000" stroke="none">
<path d="M26 3863 c1 -120 3 -274 3 -343 l1 -125 43 -17 c59 -25 123 -24 137
2 7 13 10 136 9 360 l-1 340 -97 0 -97 0 2 -217z"/>
<path d="M1857 3978 c1 -57 6 -224 9 -371 4 -165 10 -267 16 -265 11 4 12 26
9 436 -1 286 -2 302 -19 302 -17 0 -18 -9 -15 -102z"/>
<path d="M5342 4041 c-53 -46 -54 -74 -2 -109 19 -12 41 -36 47 -52 7 -16 21
-34 32 -39 25 -14 34 -40 20 -57 -17 -20 -3 -44 26 -44 15 0 26 -6 27 -15 0
-8 1 -21 2 -27 1 -16 17 -28 28 -22 4 3 17 25 28 49 20 44 44 65 75 65 13 0
15 -6 10 -32 -4 -18 -12 -42 -18 -53 -6 -11 -11 -31 -11 -45 -1 -18 -7 -26
-24 -28 -22 -3 -21 -5 17 -60 22 -31 43 -69 46 -84 6 -25 4 -28 -17 -28 -14 0
-33 9 -43 20 -10 11 -20 18 -22 16 -6 -6 19 -47 42 -69 14 -13 16 -20 8 -23
-7 -3 -13 -12 -13 -19 0 -22 -27 -25 -46 -3 -18 19 -18 20 1 35 14 10 16 17 8
20 -7 2 -23 13 -35 23 -20 16 -21 22 -10 39 6 11 12 28 12 36 0 24 -27 17 -34
-9 -4 -17 -15 -25 -41 -30 -46 -9 -44 -22 3 -37 33 -9 38 -15 34 -34 -5 -28
-60 -53 -68 -31 -3 7 -4 19 -2 27 2 9 -8 15 -29 17 -17 2 -40 13 -52 25 -60
65 -79 80 -110 91 -19 6 -40 20 -48 32 -12 18 -11 24 8 48 20 26 20 28 4 46
-10 11 -23 20 -29 20 -6 0 -22 9 -36 20 -24 18 -60 27 -60 14 0 -10 35 -69 43
-72 4 -2 7 -9 7 -17 0 -7 7 -18 15 -25 22 -18 18 -39 -8 -49 -28 -11 -51 -37
-43 -50 3 -5 1 -22 -6 -38 -6 -15 -11 -31 -10 -35 1 -4 -7 -12 -18 -18 -24
-13 -26 -45 -4 -54 14 -5 14 -7 0 -22 -24 -23 -48 -73 -41 -84 9 -15 35 -12
35 3 0 8 9 22 19 31 12 11 19 30 19 47 -1 29 28 73 43 64 9 -6 82 26 87 38 8
18 63 5 94 -22 18 -15 47 -33 63 -38 27 -9 30 -13 27 -49 -2 -21 -9 -43 -16
-49 -7 -5 -20 -24 -29 -42 -16 -30 -19 -31 -49 -22 -18 6 -41 13 -50 16 -23 7
-24 -20 -2 -38 9 -7 27 -37 41 -66 22 -49 43 -62 43 -28 0 24 44 83 66 87 11
3 26 -2 33 -9 11 -12 10 -20 -3 -46 -21 -45 -6 -56 44 -30 43 24 57 17 52 -24
-3 -18 5 -26 38 -40 28 -12 43 -26 47 -43 3 -14 8 -29 12 -35 3 -5 6 -17 6
-25 4 -41 6 -50 18 -62 50 -51 70 -114 51 -163 -6 -14 -8 -14 -25 1 -11 9 -19
23 -19 31 0 16 -5 16 -30 1 -26 -16 -43 1 -43 42 0 23 -4 29 -14 25 -8 -3 -19
-5 -24 -5 -5 0 -9 -5 -9 -11 0 -6 -8 -18 -17 -27 -16 -16 -16 -15 -9 8 5 14 8
35 8 47 0 18 4 22 22 18 16 -4 24 1 34 22 11 24 10 30 -5 40 -13 11 -21 10
-37 -1 -12 -7 -20 -17 -19 -22 1 -5 -7 -12 -18 -16 -10 -4 -24 -19 -29 -33 -7
-18 -17 -25 -35 -25 -14 0 -33 -8 -43 -18 -10 -10 -24 -16 -30 -14 -16 5 -15
-6 2 -24 8 -7 16 -19 18 -25 3 -9 10 -8 26 2 30 19 42 1 35 -52 -6 -41 5 -49
36 -30 22 14 53 -6 46 -28 -8 -27 21 -34 52 -14 25 17 25 17 80 -43 71 -78
110 -164 86 -188 -5 -4 -9 -20 -9 -34 -1 -15 -7 -41 -15 -59 -11 -26 -11 -36
0 -56 7 -14 10 -30 7 -36 -4 -6 0 -25 8 -43 9 -17 16 -39 16 -50 0 -10 5 -18
10 -18 6 0 20 -16 32 -36 14 -24 26 -34 38 -31 26 7 34 -2 64 -61 31 -62 59
-68 64 -14 4 44 26 41 57 -9 24 -38 28 -40 68 -37 l42 3 2 185 c1 102 -1 179
-3 173 -11 -25 -24 -12 -24 23 0 28 3 35 15 30 13 -5 15 30 15 274 0 278 0
279 -23 302 -13 13 -31 22 -40 20 -12 -3 -17 3 -17 22 0 27 10 31 58 27 l23
-2 -1 164 c-2 160 -2 165 -24 177 -28 14 -24 60 4 60 16 0 18 11 19 85 0 74
-2 86 -20 99 l-20 14 20 36 c13 22 21 55 21 81 0 45 -2 47 -45 49 -11 1 -21 9
-23 19 -3 15 0 18 18 12 27 -8 50 10 50 41 0 29 -14 38 -31 18 -10 -12 -26
-14 -81 -10 -42 4 -68 2 -68 -4 0 -5 9 -10 20 -10 10 0 24 -9 30 -20 6 -12 22
-25 36 -30 27 -11 30 -22 10 -43 -9 -9 -12 -24 -9 -37 4 -17 2 -21 -8 -18 -8
3 -15 10 -15 16 -1 7 -2 17 -3 22 -2 18 -46 11 -58 -9 -10 -15 -9 -22 2 -31
17 -14 20 -33 4 -28 -6 2 -10 7 -9 11 1 10 -21 32 -41 39 -9 4 -20 -2 -28 -14
-7 -12 -18 -17 -28 -14 -9 4 -24 0 -33 -9 -22 -20 -52 -10 -41 13 33 65 35 72
22 85 -18 18 -65 -37 -57 -68 4 -17 0 -25 -19 -33 -29 -13 -32 -30 -7 -38 58
-19 87 -41 87 -68 1 -31 18 -45 55 -46 14 0 35 -6 48 -13 22 -13 22 -14 5 -30
-12 -10 -23 -13 -32 -7 -29 17 -38 1 -30 -50 6 -38 16 -58 46 -88 53 -53 74
-84 71 -105 -4 -23 -20 -24 -33 -2 -10 17 -64 75 -69 75 -5 0 0 -96 6 -106 9
-15 32 -126 32 -159 1 -16 -3 -38 -8 -49 -12 -27 -26 -2 -26 47 0 31 -4 39
-27 48 -34 13 -52 37 -53 72 0 25 2 27 20 17 17 -9 20 -8 21 12 1 13 3 39 5
58 2 23 -6 55 -24 93 -25 54 -43 69 -57 47 -11 -17 -33 -11 -40 11 -8 26 -4
31 35 35 35 4 70 21 70 33 0 14 -28 33 -38 27 -6 -3 -25 1 -44 8 -25 11 -40
28 -57 64 -13 28 -21 55 -17 60 3 6 2 14 -4 17 -17 11 -9 107 10 130 28 32 34
91 13 113 -40 42 -43 55 -14 79 26 21 26 21 6 43 -15 17 -17 26 -9 48 15 40
-1 82 -32 82 -32 0 -40 -24 -20 -55 15 -22 15 -26 2 -31 -8 -3 -20 -3 -26 1
-20 12 -10 -29 16 -62 18 -23 23 -38 16 -45 -6 -6 -12 -6 -16 1 -21 34 -56
-13 -56 -74 0 -42 -17 -45 -49 -11 -26 27 -41 106 -21 106 20 0 5 23 -26 40
-24 14 -30 25 -38 73 -5 31 -12 57 -15 57 -3 0 -26 -17 -49 -39z m524 -468
c-10 -10 -19 5 -10 18 6 11 8 11 12 0 2 -7 1 -15 -2 -18z m-26 -9 c0 -8 -4
-12 -10 -9 -5 3 -10 10 -10 16 0 5 5 9 10 9 6 0 10 -7 10 -16z m125 -24 c3 -5
16 -10 27 -10 46 0 60 -58 30 -120 -28 -58 -45 -48 -74 40 -14 42 -18 45 -49
45 -32 0 -35 3 -30 35 0 6 12 8 26 4 15 -4 25 -2 25 5 0 14 37 15 45 1z m-545
-291 c14 -24 9 -32 -14 -23 -17 7 -23 44 -6 44 5 0 14 -9 20 -21z m636 -73
c13 -10 16 -18 9 -25 -13 -13 -59 15 -50 30 8 13 18 11 41 -5z m-266 -190
c-15 -14 -41 19 -33 42 5 12 9 11 25 -8 14 -17 16 -26 8 -34z m-79 32 c1 -7 3
-30 4 -50 2 -21 0 -38 -5 -38 -19 0 -38 31 -35 58 2 15 4 30 4 35 1 12 31 8
32 -5z m235 -96 c-22 -5 -30 3 -21 18 5 8 11 7 22 -2 15 -12 14 -13 -1 -16z
m52 -23 c-2 -6 -8 -10 -13 -10 -5 0 -11 4 -13 10 -2 6 4 11 13 11 9 0 15 -5
13 -11z m-123 -10 c10 -15 -1 -23 -20 -15 -9 3 -13 10 -10 16 8 13 22 13 30
-1z m-115 -43 c-14 -14 -22 -2 -14 18 5 14 9 15 15 4 4 -7 4 -17 -1 -22z m170
-62 c0 -56 -52 -86 -78 -44 -10 16 -10 24 0 40 7 11 16 20 20 20 5 0 8 8 8 18
0 28 11 34 32 15 10 -9 18 -30 18 -49z m156 11 c-4 -11 -15 -15 -33 -13 -36 4
-38 37 -3 55 22 11 26 10 34 -7 5 -10 6 -26 2 -35z m-86 -36 c0 -24 -23 -21
-28 4 -2 10 3 17 12 17 10 0 16 -9 16 -21z m-36 -55 c7 -18 -10 -44 -27 -44
-5 0 -25 -11 -43 -25 -40 -31 -41 -31 -47 1 -8 42 13 73 53 77 19 2 40 4 46 5
7 1 15 -5 18 -14z m-377 -56 c-7 -4 -17 2 -24 15 -19 35 -15 41 11 16 17 -16
21 -26 13 -31z m239 -32 c-7 -29 -37 -49 -61 -40 -13 5 -15 15 -10 53 8 57 20
65 52 35 19 -18 24 -30 19 -48z m238 28 c9 -22 7 -54 -2 -54 -15 0 -32 24 -32
47 0 26 25 31 34 7z m-339 -33 c3 -5 1 -12 -5 -16 -5 -3 -10 1 -10 9 0 18 6
21 15 7z m235 -25 c0 -21 -11 -46 -20 -46 -7 0 -7 44 -1 58 4 9 21 -1 21 -12z
m-122 -114 c2 -7 -3 -12 -12 -12 -9 0 -16 7 -16 16 0 17 22 14 28 -4z m85 -51
c21 -8 25 -15 22 -43 -2 -18 4 -47 13 -65 17 -34 13 -49 -12 -40 -25 10 -43
49 -49 105 -3 28 -4 52 -2 52 2 0 15 -4 28 -9z m-99 -37 c13 -34 7 -44 -29
-44 -24 0 -35 5 -35 14 0 29 13 46 35 46 13 0 26 -7 29 -16z m216 -38 c0 -8
-4 -18 -10 -21 -5 -3 -10 3 -10 14 0 12 5 21 10 21 6 0 10 -6 10 -14z m-205
-87 c-8 -12 -35 -12 -35 0 0 11 22 20 33 14 4 -2 5 -9 2 -14z m63 -34 c32 -16
64 -62 75 -108 4 -15 10 -38 13 -52 5 -22 3 -25 -18 -25 -14 0 -32 8 -41 18
-16 18 -39 100 -31 113 2 4 -2 11 -9 16 -11 7 -31 53 -23 53 2 0 17 -7 34 -15z
m-54 -24 c14 -15 15 -28 9 -66 l-8 -47 -27 22 c-19 14 -28 31 -28 50 0 60 22
76 54 41z m263 -57 c8 -21 -16 -64 -32 -57 -20 7 -26 32 -15 54 13 23 38 25
47 3z"/>
<path d="M2380 3930 c-13 -9 -12 -12 4 -25 25 -19 40 -19 56 0 24 29 -24 49
-60 25z"/>
<path d="M860 3914 c-230 -33 -330 -123 -419 -378 -18 -49 -38 -103 -46 -120
-20 -46 -51 -151 -65 -229 -16 -89 -135 -402 -165 -437 -8 -8 -21 -58 -30
-110 -13 -76 -24 -107 -54 -155 -21 -33 -48 -79 -60 -102 l-21 -42 0 -1171 0
-1170 3060 0 3060 0 0 134 0 134 -67 4 c-47 2 -84 -3 -123 -16 -37 -12 -84
-19 -142 -19 l-88 0 0 -39 c0 -36 2 -38 30 -38 17 0 30 -4 30 -10 0 -6 -33
-10 -80 -10 -47 0 -80 4 -80 10 0 6 18 10 40 10 38 0 40 2 40 30 l0 30 -80 0
c-47 0 -80 4 -80 10 0 6 -18 10 -40 10 -22 0 -40 5 -40 10 0 7 -6 7 -19 0 -11
-5 -27 -10 -35 -10 -9 0 -32 -18 -52 -40 -42 -46 -54 -50 -54 -15 0 23 -4 25
-40 25 -36 0 -40 -2 -40 -25 0 -14 4 -25 9 -25 5 0 11 -19 12 -43 l4 -43 -87
2 c-66 1 -94 6 -115 19 -15 10 -41 21 -58 25 -18 3 -31 13 -33 24 -3 16 0 18
23 12 66 -17 85 -18 85 -7 0 6 -17 11 -40 11 l-40 0 0 40 c0 30 4 40 16 40 14
0 14 3 4 15 -8 9 -30 15 -56 15 -24 0 -44 5 -44 10 0 6 -18 10 -40 10 -22 0
-40 -4 -40 -10 0 -5 -18 -10 -40 -10 -22 0 -40 5 -40 10 0 6 -18 10 -40 10
-29 0 -40 4 -40 15 0 11 -11 15 -39 15 -22 0 -41 4 -43 10 -1 5 -68 14 -148
20 -80 6 -171 14 -202 18 -57 9 -101 -1 -135 -30 -11 -9 -12 -13 -1 -20 16
-10 -145 -2 -227 11 -247 40 -646 129 -730 162 -36 15 -148 37 -265 54 -63 9
-133 22 -155 30 -22 7 -83 21 -135 30 -113 21 -357 82 -379 95 -14 8 -13 9 4
10 73 2 289 31 301 41 9 8 37 9 86 5 40 -3 216 -7 390 -8 326 -3 349 -1 335
36 -5 13 -50 14 -334 12 -250 -2 -311 -1 -258 7 39 6 135 9 215 9 80 -1 195 1
257 4 l112 6 10 30 c6 17 11 33 11 34 0 7 -633 4 -718 -3 -77 -6 -83 -8 -89
-31 -4 -17 -21 -31 -57 -48 -62 -29 -81 -30 -113 -4 -16 13 -41 20 -67 20 -23
0 -51 7 -62 15 -18 14 -18 16 -1 26 23 13 22 23 -8 67 -14 20 -25 43 -25 50 0
26 -82 182 -96 182 -19 0 -18 -50 1 -86 25 -49 18 -56 -27 -27 -24 16 -52 36
-63 46 -40 37 -153 107 -172 107 -29 0 -53 32 -53 68 0 37 5 35 -120 37 -117
1 -210 30 -332 106 -67 41 -91 62 -121 108 -46 71 -48 94 -9 85 15 -4 35 -11
44 -15 9 -5 25 -9 36 -9 10 0 45 -14 78 -31 32 -17 73 -38 89 -47 17 -9 35
-21 40 -28 14 -17 187 -74 224 -74 43 0 46 15 12 58 -16 21 -33 51 -37 66 -3
15 -14 30 -23 33 -57 18 -122 47 -132 59 -15 19 5 44 36 44 67 0 73 32 9 50
-36 10 -57 11 -102 1 -31 -7 -77 -15 -102 -18 -25 -3 -49 -11 -53 -19 -9 -16
-112 -20 -122 -4 -3 6 -1 10 4 10 6 0 11 10 11 21 0 12 10 37 21 56 l22 35
-37 30 c-27 22 -36 37 -36 60 0 29 1 30 35 25 19 -3 35 -2 35 4 0 5 -8 9 -19
9 -10 0 -24 7 -31 15 -19 23 -8 48 28 57 37 10 40 18 12 43 -11 10 -20 28 -20
40 0 34 -19 43 -80 39 -64 -5 -120 17 -120 45 0 12 -10 21 -25 25 -22 6 -25
12 -25 52 0 25 6 72 14 103 8 31 18 82 21 114 6 42 18 73 46 117 39 61 57 71
79 45 7 -8 17 -12 22 -9 5 4 36 1 69 -6 51 -11 62 -11 84 4 13 9 28 28 31 42
8 30 -19 86 -57 118 -35 30 -63 123 -49 161 13 33 15 26 -20 70 -18 22 -30 50
-30 67 0 28 1 28 23 13 13 -8 27 -12 30 -8 12 12 7 50 -8 63 -8 7 -12 16 -9
21 2 5 23 -8 44 -29 30 -28 40 -45 40 -68 0 -33 22 -60 39 -49 14 8 40 97 51
178 6 38 17 81 25 97 8 16 15 54 15 84 0 31 5 86 12 124 6 37 8 79 5 92 -7 23
-139 165 -253 271 l-49 46 -105 7 c-58 4 -112 8 -120 10 -8 2 -26 1 -40 0z
m256 -2010 c-4 -13 -11 -24 -16 -24 -14 0 -12 57 2 83 13 22 13 21 16 -7 2
-15 1 -39 -2 -52z m264 -274 c0 -5 -4 -10 -10 -10 -5 0 -10 5 -10 10 0 6 5 10
10 10 6 0 10 -4 10 -10z m-380 -135 c0 -12 -33 -64 -61 -95 -9 -10 -22 -35
-29 -56 -22 -73 -32 -94 -46 -94 -23 0 -17 69 11 128 14 30 25 59 25 65 0 23
18 39 51 47 45 10 49 11 49 5z m494 -321 c9 -8 16 -20 16 -25 0 -5 8 -9 17 -9
26 0 112 -63 113 -82 0 -39 -9 -45 -60 -40 -40 4 -51 1 -56 -12 -3 -9 -12 -16
-20 -16 -8 0 -14 -4 -14 -9 0 -5 -5 -22 -11 -38 l-11 -28 -14 30 c-14 33 -17
110 -8 193 7 55 20 65 48 36z m246 -216 c11 -12 20 -28 20 -35 0 -24 -56 -14
-94 16 l-37 30 43 4 c24 2 44 4 45 5 1 1 11 -8 23 -20z m-247 -105 c-7 -2 -19
-2 -25 0 -7 3 -2 5 12 5 14 0 19 -2 13 -5z m1085 -46 c20 -16 -19 -28 -55 -17
-15 4 -22 9 -15 9 6 1 11 4 11 9 -3 19 3 23 24 16 12 -3 28 -11 35 -17z
m-1808 -10 c0 -8 11 -24 25 -37 14 -13 38 -47 54 -75 36 -63 68 -85 130 -90
50 -4 115 -36 125 -62 5 -12 1 -14 -19 -9 -20 5 -25 3 -25 -13 0 -11 9 -25 19
-31 23 -12 41 -13 40 -2 -1 4 -1 16 0 27 2 19 3 18 11 -3 8 -19 12 -21 29 -11
15 10 26 10 50 -1 43 -17 40 -52 -6 -61 -17 -3 -39 -14 -48 -23 -9 -9 -21 -14
-26 -11 -5 4 -9 -3 -9 -15 0 -17 4 -19 25 -14 14 3 25 3 25 0 0 -15 -67 -65
-87 -66 -22 0 -30 -6 -70 -54 -13 -15 -33 -26 -47 -26 -14 0 -27 -4 -31 -10
-3 -5 -37 -19 -75 -31 -45 -15 -72 -29 -76 -41 -3 -11 -15 -18 -29 -18 -13 0
-27 -4 -30 -10 -3 -5 -14 -10 -24 -10 -10 0 -26 -9 -36 -20 -16 -18 -31 -20
-153 -19 l-136 0 32 19 c17 11 54 27 82 36 28 9 55 25 61 36 15 28 77 52 94
38 8 -6 31 -10 52 -8 35 3 38 5 36 33 -1 17 3 72 8 122 l9 93 -37 52 c-20 29
-49 67 -64 85 -33 39 -45 71 -30 86 7 7 16 6 28 -4 26 -21 79 -49 93 -49 18 0
5 56 -20 87 -23 29 -19 60 11 81 11 7 19 20 19 28 0 8 5 14 10 14 6 0 10 -6
10 -13z m-140 -505 c0 -17 -26 -32 -56 -32 -39 0 -52 15 -27 29 21 12 83 14
83 3z m830 -53 c0 -5 5 -7 10 -4 6 3 10 -1 10 -9 0 -9 -3 -16 -7 -16 -5 0 -17
-14 -28 -30 -11 -16 -26 -30 -32 -30 -21 0 -15 52 9 77 23 25 38 30 38 12z
m3180 -29 c0 -34 1 -34 -37 -19 l-28 10 25 19 c34 26 40 25 40 -10z m160 -60
c0 -13 -20 -13 -40 0 -12 8 -9 10 13 10 15 0 27 -4 27 -10z m-3332 -20 c-13
-20 -48 -28 -48 -12 0 9 36 30 53 31 4 1 2 -8 -5 -19z m3412 0 c0 -13 -11 -13
-30 0 -12 8 -11 10 8 10 12 0 22 -4 22 -10z"/>
<path d="M1422 210 c-8 -13 -8 -20 -2 -20 6 0 13 7 17 15 9 24 -1 27 -15 5z"/>
<path d="M6064 3895 c-6 -15 21 -55 38 -55 4 0 8 11 8 25 0 30 -37 55 -46 30z"/>
<path d="M3477 3852 c-13 -14 -15 -22 -7 -27 16 -10 33 9 28 30 -3 16 -5 15
-21 -3z"/>
<path d="M5716 3852 c-3 -5 1 -17 8 -27 11 -16 14 -16 19 -2 6 17 -18 44 -27
29z"/>
<path d="M5836 3845 c-6 -18 29 -41 39 -25 7 11 -12 40 -25 40 -4 0 -10 -7
-14 -15z"/>
<path d="M5154 3784 c10 -25 48 -68 80 -89 16 -11 40 -41 53 -66 13 -25 37
-59 55 -75 l31 -29 -6 38 c-3 20 -15 49 -26 64 -12 14 -21 31 -21 38 0 11 49
37 90 48 25 6 -24 27 -69 29 -23 1 -41 4 -41 8 0 11 -100 50 -127 50 -19 0
-24 -4 -19 -16z"/>
<path d="M5724 3775 c-8 -21 3 -34 26 -28 27 7 36 23 19 34 -21 13 -39 11 -45
-6z"/>
<path d="M5846 3722 c-3 -6 -1 -14 5 -17 15 -10 25 3 12 16 -7 7 -13 7 -17 1z"/>
<path d="M5018 3673 c7 -3 16 -2 19 1 4 3 -2 6 -13 5 -11 0 -14 -3 -6 -6z"/>
<path d="M5032 3644 c-9 -10 -5 -16 20 -28 40 -21 40 -21 36 11 -3 29 -35 39
-56 17z"/>
<path d="M4634 3519 c0 -11 7 -19 18 -19 27 0 30 16 5 27 -19 9 -23 8 -23 -8z"/>
<path d="M4710 3516 c0 -2 7 -6 15 -10 8 -3 15 -1 15 4 0 6 -7 10 -15 10 -8 0
-15 -2 -15 -4z"/>
<path d="M4830 3466 c0 -7 6 -19 14 -25 19 -16 32 5 16 24 -16 19 -30 19 -30
1z"/>
<path d="M4044 3360 c-37 -8 -154 -77 -154 -91 0 -6 -12 -22 -26 -36 -14 -14
-39 -51 -55 -83 -35 -70 -38 -130 -9 -220 11 -34 20 -78 20 -97 0 -39 28 -133
40 -133 4 0 5 -20 3 -44 -3 -24 0 -61 8 -82 7 -22 14 -48 15 -60 1 -12 19 -54
38 -94 23 -47 33 -77 27 -84 -5 -6 -13 -29 -17 -51 -7 -35 -8 -37 -14 -16 -3
14 -11 26 -18 29 -7 2 -10 -2 -6 -12 3 -9 1 -16 -5 -16 -7 0 -14 7 -17 15 -4
8 -12 15 -20 15 -8 0 -11 -6 -8 -15 4 -11 2 -13 -9 -9 -8 3 -18 1 -21 -5 -9
-13 13 -91 30 -110 11 -12 15 -10 24 15 10 27 12 27 22 10 7 -13 12 -15 18 -6
15 24 38 -21 60 -115 12 -52 25 -94 28 -93 4 1 17 -1 29 -6 14 -4 33 -1 51 8
44 23 121 -7 107 -41 -2 -8 -1 -11 4 -8 22 13 19 -15 -4 -39 -14 -15 -23 -31
-21 -35 8 -12 109 -7 113 6 2 6 -6 13 -19 15 -29 4 -36 34 -9 41 21 5 38 33
27 44 -3 3 -12 1 -19 -6 -11 -9 -21 -4 -48 20 -19 17 -29 28 -22 25 15 -8 74
49 76 73 1 16 6 17 41 9 42 -10 65 5 45 29 -6 7 -7 18 -3 24 5 8 2 11 -7 7
-11 -4 -14 9 -16 64 -2 38 -7 77 -13 88 -7 13 -6 26 5 47 22 42 19 50 -38 108
-44 43 -54 58 -52 84 1 17 -2 31 -7 31 -16 0 17 39 36 42 10 2 24 11 30 21 9
14 7 20 -7 28 -9 6 -15 14 -12 19 9 15 -34 32 -87 33 -57 3 -72 19 -52 57 10
19 14 20 14 8 0 -10 5 -18 10 -18 6 0 10 4 10 9 0 6 12 6 30 -1 17 -5 37 -7
45 -4 8 3 15 1 15 -4 0 -6 8 -10 18 -10 10 0 24 -6 30 -12 10 -10 15 -10 21 1
6 9 11 10 15 3 4 -6 13 -9 21 -6 17 7 44 -33 47 -69 1 -15 8 -29 15 -31 7 -3
13 -16 13 -30 0 -15 7 -25 19 -29 24 -6 54 24 45 46 -3 9 -1 24 5 34 10 17 10
17 11 -2 l1 -20 9 20 c5 11 9 32 9 47 1 15 15 50 32 78 20 33 35 74 41 118 10
60 8 77 -10 138 -12 39 -31 79 -42 89 -11 10 -20 22 -20 28 0 5 -15 35 -34 66
-25 41 -51 66 -96 95 -34 22 -70 41 -79 42 -9 1 -38 7 -65 13 -51 12 -157 13
-212 1z m-54 -461 c6 -11 31 -29 56 -39 35 -16 44 -24 44 -45 0 -29 -3 -31
-25 -9 -15 15 -17 15 -34 0 -10 -9 -22 -16 -27 -16 -5 0 -3 4 4 9 11 7 11 9
-2 14 -10 4 -16 1 -16 -8 0 -18 -21 -20 -38 -3 -8 8 -15 8 -25 0 -8 -7 -17 -9
-20 -5 -4 3 -7 -5 -7 -19 0 -17 7 -27 20 -31 35 -9 22 -25 -20 -24 -30 2 -40
6 -40 19 0 11 5 15 15 12 8 -4 15 -1 15 5 0 6 -4 11 -9 11 -5 0 -11 9 -14 20
-3 11 -1 20 4 20 5 0 9 -8 9 -17 0 -15 2 -16 10 -3 5 8 7 25 4 36 -6 24 18 79
38 87 27 11 48 6 58 -14z m245 -269 c3 -5 2 -10 -4 -10 -5 0 -13 5 -16 10 -3
6 -2 10 4 10 5 0 13 -4 16 -10z m-159 -57 c17 -22 27 -47 26 -60 -3 -16 2 -23
13 -23 27 0 13 -32 -18 -43 -22 -7 -32 -5 -46 7 -10 9 -25 14 -34 11 -22 -9
-32 14 -12 29 15 11 16 15 4 35 -12 19 -12 23 4 32 9 6 17 19 17 29 0 30 14
24 46 -17z m-182 12 c-4 -8 -8 -15 -10 -15 -2 0 -4 7 -4 15 0 8 4 15 10 15 5
0 7 -7 4 -15z m71 -25 c-3 -5 -11 -10 -16 -10 -6 0 -7 5 -4 10 3 6 11 10 16
10 6 0 7 -4 4 -10z m190 -530 c-3 -5 -10 -10 -16 -10 -5 0 -9 5 -9 10 0 6 7
10 16 10 8 0 12 -4 9 -10z"/>
<path d="M5332 3343 c2 -9 11 -17 20 -19 15 -2 16 1 8 17 -13 23 -33 25 -28 2z"/>
<path d="M4910 3284 c-12 -14 -12 -18 5 -30 17 -12 20 -12 28 2 6 11 4 21 -5
31 -13 12 -16 12 -28 -3z"/>
<path d="M2327 3222 c-22 -24 -21 -39 2 -52 21 -11 100 -5 115 10 13 13 -2 30
-40 46 -44 18 -58 18 -77 -4z"/>
<path d="M2578 3218 c-20 -20 -20 -22 -3 -35 38 -27 105 -3 105 38 0 28 -72
27 -102 -3z"/>
<path d="M2940 3210 c-18 -12 -2 -12 25 0 13 6 15 9 5 9 -8 0 -22 -4 -30 -9z"/>
<path d="M2925 3185 c-30 -14 -29 -14 27 -15 31 0 63 -3 72 -6 9 -3 16 -1 16
5 0 6 -7 11 -16 11 -8 0 -12 5 -9 10 9 15 -55 11 -90 -5z"/>
<path d="M5160 3155 c0 -16 27 -32 37 -21 7 7 -16 36 -28 36 -5 0 -9 -7 -9
-15z"/>
<path d="M2948 3133 c12 -2 32 -2 45 0 12 2 2 4 -23 4 -25 0 -35 -2 -22 -4z"/>
<path d="M4905 3120 c-8 -26 -1 -36 36 -49 l30 -10 -7 32 c-10 48 -47 65 -59
27z"/>
<path d="M2927 3090 c-51 -10 -62 -24 -12 -17 22 4 46 7 53 7 6 0 12 5 12 10
0 6 -3 9 -7 9 -5 -1 -25 -5 -46 -9z"/>
<path d="M2790 3080 c0 -13 11 -13 30 0 12 8 11 10 -7 10 -13 0 -23 -4 -23
-10z"/>
<path d="M2717 3003 c-37 -15 -77 -71 -77 -108 0 -8 -4 -15 -10 -15 -5 0 -10
-7 -10 -16 0 -9 5 -12 12 -8 8 5 9 0 5 -15 -4 -15 2 -31 16 -47 24 -27 37 -31
37 -9 0 8 6 15 14 15 8 0 18 5 22 12 5 7 2 9 -7 4 -8 -4 -4 1 9 12 12 11 22
29 22 39 0 29 11 35 27 15 13 -15 13 -15 7 8 -5 20 -4 23 7 13 19 -19 31 -16
20 5 -5 9 -15 38 -23 65 -14 52 -16 53 -71 30z m40 -25 c-3 -8 -6 -5 -6 6 -1
11 2 17 5 13 3 -3 4 -12 1 -19z m-81 -155 c-11 -11 -19 6 -11 24 8 17 8 17 12
0 3 -10 2 -21 -1 -24z"/>
<path d="M4747 3013 c-4 -3 -7 -11 -7 -17 0 -6 5 -5 12 2 6 6 9 14 7 17 -3 3
-9 2 -12 -2z"/>
<path d="M2874 2995 c17 -9 32 -12 35 -6 3 5 15 11 26 14 11 2 -5 5 -35 6
l-55 1 29 -15z"/>
<path d="M5035 2929 c-10 -43 8 -58 30 -25 14 21 15 29 5 41 -19 22 -28 18
-35 -16z"/>
<path d="M2898 2913 c12 -2 32 -2 45 0 12 2 2 4 -23 4 -25 0 -35 -2 -22 -4z"/>
<path d="M4955 2900 c-3 -5 -4 -14 0 -20 8 -13 35 -1 35 16 0 16 -26 19 -35 4z"/>
<path d="M2898 2893 c6 -2 18 -2 25 0 6 3 1 5 -13 5 -14 0 -19 -2 -12 -5z"/>
<path d="M2800 2869 c0 -5 5 -7 10 -4 6 3 10 8 10 11 0 2 -4 4 -10 4 -5 0 -10
-5 -10 -11z"/>
<path d="M2855 2860 c-3 -5 -17 -10 -31 -10 -13 0 -24 -3 -24 -6 0 -33 104
-37 113 -4 3 13 -2 20 -17 24 -29 8 -34 7 -41 -4z"/>
<path d="M2590 2846 c0 -8 5 -18 10 -21 6 -3 10 1 10 9 0 8 -4 18 -10 21 -5 3
-10 -1 -10 -9z"/>
<path d="M3045 2839 c-16 -10 -35 -22 -41 -27 -24 -21 -60 -35 -90 -34 -29 1
-33 -2 -38 -32 -5 -28 -10 -33 -26 -29 -11 3 -20 0 -20 -6 0 -6 -4 -11 -10
-11 -5 0 -10 9 -10 20 0 11 -7 20 -16 20 -8 0 -13 -4 -10 -8 3 -5 -10 -15 -29
-22 -19 -8 -35 -17 -35 -22 0 -4 -7 -8 -16 -8 -9 0 -38 -23 -64 -51 -35 -37
-54 -50 -66 -45 -15 6 -15 8 -1 24 8 9 25 38 37 64 14 31 26 45 36 41 7 -3 17
2 20 11 8 20 0 31 -15 21 -6 -3 -45 -7 -86 -8 -80 -3 -105 -16 -118 -66 -7
-26 36 -151 77 -221 14 -25 26 -53 26 -62 0 -10 5 -18 10 -18 6 0 10 -5 10
-12 0 -6 -3 -8 -7 -5 -3 4 -16 0 -29 -8 -20 -13 -24 -12 -47 9 l-25 23 -6 -21
c-8 -29 -7 -43 2 -29 5 7 11 -1 18 -22 8 -27 8 -35 -3 -39 -20 -8 -46 53 -48
115 -1 31 -5 61 -8 66 -3 4 -15 33 -26 63 -23 62 -27 110 -9 128 6 6 9 14 6
18 -4 3 -15 -3 -25 -13 -62 -61 -92 -74 -223 -98 -72 -14 -138 -29 -148 -34
-10 -5 -47 -20 -83 -32 -76 -26 -134 -61 -149 -89 -14 -26 2 -26 25 0 28 31
75 26 113 -13 18 -18 32 -38 32 -45 0 -7 12 -30 26 -52 19 -28 28 -56 29 -93
2 -28 10 -80 19 -114 28 -108 31 -172 7 -223 -23 -52 -27 -45 -34 60 -6 94
-28 149 -70 178 -31 20 -67 30 -67 17 0 -3 15 -20 33 -38 31 -32 41 -60 76
-207 17 -69 21 -152 12 -211 -10 -63 -7 -76 22 -85 43 -13 187 -127 261 -205
l75 -79 148 -1 c81 -1 138 -4 126 -6 -29 -6 -60 -46 -73 -93 -6 -21 -17 -43
-25 -50 -21 -17 -19 -30 11 -89 l25 -51 99 0 c54 0 101 4 105 10 3 5 12 7 21
3 12 -4 14 0 8 21 l-6 27 46 -29 c28 -18 55 -28 66 -25 26 7 26 23 -1 23 -11
0 -18 4 -15 9 3 5 -2 15 -11 22 -14 12 -16 12 -8 0 6 -11 4 -13 -11 -6 -10 4
-32 10 -49 12 -16 3 -43 15 -58 28 l-29 22 27 7 c22 6 25 9 15 21 -17 20 -39
19 -46 -3 -19 -57 -53 -86 -55 -44 0 9 -2 32 -3 50 -3 28 -1 32 21 32 13 0 22
4 18 9 -3 6 2 14 11 19 19 10 11 32 -12 32 -8 0 -14 4 -14 9 0 5 10 7 21 4 19
-5 21 -3 17 20 -4 19 -1 24 10 19 9 -3 13 -1 9 5 -5 7 1 9 15 6 18 -5 21 -3
11 7 -9 10 -5 18 18 37 25 21 36 24 70 19 l39 -6 -30 61 c-25 48 -29 64 -19
75 6 8 15 14 20 14 5 0 31 -42 59 -94 38 -71 58 -97 80 -106 29 -12 89 -97
105 -148 10 -32 14 -24 21 39 6 63 30 88 82 89 44 0 89 -24 135 -72 43 -46 56
-45 32 2 -21 41 -61 78 -100 96 -16 7 -25 13 -19 14 6 0 9 12 6 29 -3 21 10
58 42 127 36 73 46 103 41 125 -4 15 -1 37 5 49 6 12 13 31 15 43 4 22 51 70
76 79 8 3 11 9 6 13 -4 5 -26 -5 -50 -22 -66 -47 -66 -47 -52 -6 7 21 9 47 5
62 -4 15 -1 78 7 141 18 146 14 230 -13 267 -12 16 -43 45 -70 65 -45 35 -50
36 -71 23 -29 -19 -30 -19 -29 7 1 16 9 24 26 28 29 6 80 43 141 102 44 43 46
54 5 39 -17 -7 -26 -7 -26 -1 0 6 -13 10 -30 10 -16 0 -30 5 -30 10 0 6 -6 10
-14 10 -8 0 -28 16 -45 36 -17 19 -40 36 -51 37 -39 3 -34 57 5 57 6 0 4 -4
-3 -9 -11 -7 -10 -10 3 -15 9 -3 18 -6 20 -6 9 0 -4 30 -30 69 -25 37 -29 52
-27 101 1 32 -1 61 -5 63 -5 2 -21 -4 -38 -14z m-125 -108 c0 -5 -9 -11 -20
-14 -13 -3 -20 0 -20 9 0 8 9 14 20 14 11 0 20 -4 20 -9z m-96 -132 c-8 -9
-14 -20 -13 -25 5 -26 -3 -35 -28 -32 -24 3 -28 0 -25 -20 1 -19 -2 -22 -16
-18 -11 4 -28 -2 -42 -14 -27 -24 -30 -24 -30 -6 0 7 11 26 25 42 14 16 30 35
36 42 8 10 14 10 24 2 8 -7 19 -9 25 -5 14 9 -6 35 -29 36 -15 0 -15 1 0 7 9
4 29 22 45 41 l29 34 7 -34 c4 -24 2 -39 -8 -50z m233 -95 c-3 -3 -12 -4 -19
-1 -8 3 -5 6 6 6 11 1 17 -2 13 -5z m58 -96 c-4 -18 -11 -34 -16 -36 -5 -2 -9
-15 -9 -28 0 -13 -9 -33 -21 -45 -19 -19 -22 -20 -39 -4 -10 9 -17 22 -16 28
7 34 27 66 43 71 10 3 25 15 33 26 21 30 33 24 25 -12z m-125 -37 c0 -6 -4
-13 -10 -16 -5 -3 -10 1 -10 9 0 9 5 16 10 16 6 0 10 -4 10 -9z m-448 -93 c-9
-9 -12 -7 -12 12 0 19 3 21 12 12 9 -9 9 -15 0 -24z m-57 -88 c-3 -5 2 -15 10
-24 8 -8 11 -17 6 -20 -9 -6 -27 31 -37 79 l-6 30 16 -29 c9 -15 14 -32 11
-36z m515 3 c0 -16 -7 -37 -15 -47 -8 -11 -15 -15 -15 -9 0 7 5 15 10 18 8 5
7 11 -1 21 -12 15 -6 44 11 44 5 0 10 -12 10 -27z m-62 0 c-10 -2 -18 -11 -18
-19 0 -7 -12 -16 -27 -19 -16 -3 -43 -10 -60 -14 -18 -5 -33 -6 -33 -2 0 11
41 29 69 29 14 1 29 8 33 17 5 8 19 14 31 14 17 -1 18 -2 5 -6z m12 -43 c0 -5
-4 -10 -10 -10 -5 0 -10 5 -10 10 0 6 5 10 10 10 6 0 10 -4 10 -10z m-43 -110
c-10 -34 -9 -42 7 -53 17 -12 17 -15 0 -57 -10 -25 -21 -47 -24 -50 -12 -8
-36 -62 -55 -120 -10 -30 -24 -64 -31 -75 -7 -11 -20 -39 -28 -63 -8 -23 -28
-59 -43 -80 -15 -20 -29 -39 -31 -42 -2 -2 -7 2 -12 9 -5 8 -2 35 7 65 11 36
16 99 17 216 1 190 2 191 92 255 31 22 62 45 68 52 8 8 15 8 27 -3 13 -12 14
-21 6 -54z m-386 26 c5 3 9 1 9 -4 0 -5 6 -9 13 -9 6 0 27 -3 45 -8 31 -6 33
-5 27 13 -5 19 -3 20 24 12 21 -6 31 -5 35 3 3 8 12 4 24 -10 23 -27 18 -63
-9 -70 -21 -6 -28 -38 -16 -75 5 -17 4 -34 -2 -47 -14 -25 -14 -176 -1 -200 6
-13 5 -24 -4 -37 -13 -17 -14 -16 -29 12 -31 60 -139 399 -136 429 0 5 3 4 6
-3 2 -6 9 -10 14 -6z m-534 -318 c-2 -13 -4 -5 -4 17 -1 22 1 32 4 23 2 -10 2
-28 0 -40z m1220 -424 c-3 -3 -12 -4 -19 -1 -8 3 -5 6 6 6 11 1 17 -2 13 -5z
m-570 -94 c-1 -20 -33 -38 -44 -26 -4 3 2 6 13 6 16 0 17 2 4 10 -13 8 -12 10
3 10 9 0 17 5 17 10 0 6 2 10 4 10 3 0 4 -9 3 -20z m-37 -120 c0 -5 -2 -10 -4
-10 -3 0 -8 5 -11 10 -3 6 -1 10 4 10 6 0 11 -4 11 -10z"/>
<path d="M2630 2021 c0 -6 4 -13 10 -16 6 -3 7 1 4 9 -7 18 -14 21 -14 7z"/>
<path d="M5230 2820 c-8 -5 -11 -12 -7 -16 4 -4 13 -2 19 4 15 15 7 24 -12 12z"/>
<path d="M2915 2810 c-3 -5 1 -10 9 -10 9 0 16 5 16 10 0 6 -4 10 -9 10 -6 0
-13 -4 -16 -10z"/>
<path d="M3135 2690 c3 -5 11 -10 16 -10 6 0 7 5 4 10 -3 6 -11 10 -16 10 -6
0 -7 -4 -4 -10z"/>
<path d="M3256 2595 c4 -8 16 -15 28 -15 21 1 21 1 2 15 -25 19 -37 19 -30 0z"/>
<path d="M3255 2550 c3 -5 8 -10 11 -10 2 0 4 5 4 10 0 6 -5 10 -11 10 -5 0
-7 -4 -4 -10z"/>
<path d="M5631 2491 c-14 -9 -7 -71 9 -71 15 0 31 29 28 51 -3 25 -17 33 -37
20z"/>
<path d="M2430 2371 c0 -6 5 -13 10 -16 6 -3 10 1 10 9 0 9 -4 16 -10 16 -5 0
-10 -4 -10 -9z"/>
<path d="M4511 2363 c-1 -12 4 -25 9 -28 12 -7 12 2 0 30 -8 19 -9 19 -9 -2z"/>
<path d="M5685 2350 c4 -6 11 -8 16 -5 14 9 11 15 -7 15 -8 0 -12 -5 -9 -10z"/>
<path d="M4369 2305 c-5 -118 -3 -165 6 -162 5 2 10 25 10 50 1 26 7 52 14 59
11 11 13 6 8 -26 -6 -37 -5 -38 12 -22 27 24 35 86 14 102 -10 6 -23 9 -31 6
-8 -3 -18 1 -23 9 -6 10 -9 6 -10 -16z"/>
<path d="M1386 2140 c7 -7 19 -7 35 -1 23 9 22 10 -10 10 -24 1 -32 -2 -25 -9z"/>
<path d="M1661 2103 c-1 -28 18 -70 35 -77 20 -8 17 8 -5 28 -11 10 -22 30
-24 45 -3 21 -4 22 -6 4z"/>
<path d="M3550 2110 c0 -20 28 -75 49 -98 12 -12 29 -39 38 -60 8 -20 22 -53
30 -72 23 -55 30 -72 49 -123 28 -78 27 -45 -2 49 -29 96 -83 212 -108 233 -9
8 -16 20 -16 27 0 8 -4 14 -10 14 -5 0 -10 6 -10 14 0 8 -4 18 -10 21 -5 3
-10 1 -10 -5z"/>
<path d="M5771 1972 c-6 -11 -11 -28 -11 -36 0 -21 34 -21 50 0 11 13 10 19
-7 36 l-21 20 -11 -20z"/>
<path d="M4476 1893 c-6 -14 -5 -15 5 -6 7 7 10 15 7 18 -3 3 -9 -2 -12 -12z"/>
<path d="M4842 1858 c-5 -7 -22 -55 -37 -107 -24 -84 -26 -98 -15 -132 14 -41
5 -89 -30 -174 l-16 -39 -55 3 c-30 1 -58 6 -64 10 -35 25 -325 -16 -325 -46
0 -12 14 -14 63 -13 90 3 99 0 38 -15 -30 -7 -61 -11 -68 -8 -7 3 -13 1 -13
-5 0 -21 81 -42 160 -42 49 0 82 -4 86 -12 5 -7 3 -8 -6 -3 -9 5 -10 2 -5 -14
5 -17 2 -21 -14 -21 -12 0 -21 -4 -21 -10 0 -5 -7 -10 -15 -10 -8 0 -15 -4
-15 -10 0 -5 5 -10 10 -10 6 0 10 -5 10 -11 0 -8 -14 -10 -44 -6 -27 4 -64 1
-93 -8 -26 -8 -57 -13 -68 -12 -15 2 -21 -5 -23 -25 -2 -16 -8 -28 -13 -28 -9
0 -13 20 -10 52 3 25 -14 54 -23 39 -4 -6 -2 -11 3 -11 6 0 11 -4 11 -8 0 -9
-17 -12 -57 -12 -14 0 -23 -6 -23 -15 0 -21 -31 -31 -123 -39 -54 -5 -77 -4
-72 4 4 6 -8 10 -34 10 -56 0 -70 7 -63 33 2 12 9 28 15 35 5 7 8 15 5 18 -3
2 -20 -12 -37 -32 -21 -24 -37 -34 -48 -30 -12 5 -14 9 -5 18 7 7 12 20 12 30
0 10 4 18 9 18 5 0 12 7 15 16 4 9 -10 3 -33 -15 -21 -17 -43 -31 -47 -31 -5
0 -3 4 5 9 7 5 10 14 6 21 -6 9 -9 9 -16 -1 -6 -10 -9 -8 -9 8 0 12 -3 24 -7
26 -14 8 -53 -12 -53 -27 0 -11 -20 -26 -36 -26 -2 0 -4 14 -4 30 0 33 -15 41
-24 13 -3 -10 -4 -1 -1 20 3 32 1 37 -16 37 -22 0 -49 52 -49 93 0 13 -3 26
-6 29 -6 6 -13 128 -7 128 2 0 12 -5 23 -12 10 -7 23 -9 27 -4 7 7 -14 28 -62
62 -16 11 -17 18 -9 32 9 13 7 25 -6 50 -14 25 -19 29 -24 17 -3 -9 -10 -14
-15 -11 -5 4 -17 3 -26 0 -15 -6 -16 -23 -12 -154 3 -83 10 -156 16 -168 6
-12 10 -23 9 -23 -2 -1 -23 -3 -48 -5 -25 -2 -70 -9 -100 -17 -47 -12 -52 -15
-34 -25 10 -5 36 -13 55 -17 20 -4 48 -14 62 -24 40 -26 104 -123 112 -169 l6
-40 92 -6 c320 -20 431 -26 500 -25 43 0 81 -2 86 -5 4 -3 84 -8 177 -12 93
-3 201 -10 239 -14 48 -5 72 -3 78 4 5 8 10 7 16 -3 6 -9 11 -10 15 -2 4 6 24
11 44 10 30 0 33 -2 17 -9 -28 -12 -18 -12 49 1 43 8 61 7 72 -2 10 -8 14 -8
14 0 0 6 9 11 19 11 23 0 36 16 21 25 -22 14 -7 20 52 22 34 2 66 8 72 14 8 9
1 10 -30 5 l-42 -6 15 42 c13 38 13 46 -3 80 -9 21 -32 47 -49 58 -34 21 -115
28 -115 10 0 -5 17 -10 38 -10 30 0 48 -8 81 -36 37 -33 41 -40 36 -70 -8 -53
-25 -74 -58 -70 -36 4 -57 23 -34 32 25 9 21 27 -4 19 -14 -5 -28 0 -44 15
-21 19 -31 22 -71 16 -40 -5 -45 -4 -40 10 4 12 2 15 -9 10 -9 -3 -15 0 -15 8
0 7 -10 12 -22 12 -19 -1 -23 4 -21 27 2 23 -1 26 -11 18 -7 -6 -24 -11 -37
-10 -13 0 -31 -1 -39 -2 -8 -1 -25 -1 -38 -1 -23 2 -23 3 7 28 23 19 38 24 56
20 14 -4 25 -2 25 4 0 13 27 13 32 -1 2 -6 19 -11 38 -12 31 -2 35 1 35 23 0
32 24 90 37 90 6 0 8 6 5 14 -3 8 1 22 9 33 13 16 14 12 11 -44 -4 -56 5 -83
15 -51 7 19 38 1 38 -22 0 -24 40 -28 62 -6 8 7 25 17 38 21 14 4 40 16 58 27
18 11 45 24 60 29 22 7 19 8 -16 4 -26 -3 -41 -2 -38 4 8 12 -58 -6 -96 -25
-16 -8 -28 -19 -28 -24 0 -6 -5 -10 -11 -10 -18 0 23 58 45 64 12 3 30 12 41
20 19 15 19 15 -12 12 -17 -1 -39 -8 -47 -16 -24 -19 -21 6 4 37 19 25 20 25
20 4 0 -19 2 -20 20 -9 11 7 16 14 10 16 -18 6 -10 31 15 48 37 24 21 34 -43
28 -31 -3 -70 -1 -87 4 -30 9 -29 9 17 17 26 4 45 11 42 16 -3 5 0 9 7 9 7 0
9 3 5 8 -4 4 -22 7 -38 7 -17 0 -33 5 -35 11 -2 7 8 9 27 6 18 -3 30 0 30 7 0
6 -13 11 -29 11 -48 0 -46 19 5 67 l48 46 -37 -5 c-26 -3 -37 0 -37 9 0 7 6
13 13 13 8 0 7 4 -3 10 -8 5 -11 10 -5 10 5 0 -1 7 -14 16 -20 14 -22 23 -18
55 6 42 4 45 -11 27z m74 -390 c-11 -15 -16 -18 -16 -7 0 16 21 42 28 34 2 -2
-3 -14 -12 -27z m-189 -140 c-3 -8 -6 -5 -6 6 -1 11 2 17 5 13 3 -3 4 -12 1
-19z m-1177 -7 c0 -6 -4 -13 -10 -16 -5 -3 -10 1 -10 9 0 9 5 16 10 16 6 0 10
-4 10 -9z m20 -45 c0 -9 -30 -14 -35 -6 -4 6 3 10 14 10 12 0 21 -2 21 -4z
m-14 -53 c3 -16 7 -34 10 -40 2 -7 -3 -13 -11 -13 -9 0 -15 10 -15 24 0 13 -3
31 -6 40 -3 9 -1 16 5 16 6 0 13 -12 17 -27z m137 -40 c-7 -2 -21 -2 -30 0
-10 3 -4 5 12 5 17 0 24 -2 18 -5z m1060 -58 c18 -13 18 -14 -2 -24 -24 -13
-32 -13 -50 -2 -12 8 -12 12 -2 25 16 19 30 20 54 1z m107 -10 c15 -18 0 -35
-50 -55 -19 -8 -39 -20 -43 -27 -5 -7 -12 -11 -18 -8 -14 9 -11 25 6 25 8 0
15 7 15 15 0 8 10 20 23 26 12 7 26 18 30 25 10 18 22 18 37 -1z m-903 -11
c-3 -3 -12 -4 -19 -1 -8 3 -5 6 6 6 11 1 17 -2 13 -5z m742 -20 c15 10 14 -9
-2 -22 -9 -8 -16 -6 -24 7 -7 11 -9 22 -6 25 4 3 10 1 14 -5 4 -6 12 -8 18 -5z
m-99 2 c0 -3 -4 -8 -10 -11 -5 -3 -10 -1 -10 4 0 6 5 11 10 11 6 0 10 -2 10
-4z m63 -47 c-17 -17 -37 -1 -22 17 8 10 15 12 23 4 7 -7 7 -13 -1 -21z"/>
<path d="M4790 1080 c-12 -8 -10 -10 8 -10 13 0 20 4 17 10 -7 12 -6 12 -25 0z"/>
<path d="M3502 1795 c1 -19 2 -35 3 -35 1 0 12 9 25 20 13 11 35 20 49 21 l26
1 -30 13 c-16 8 -40 14 -52 15 -19 0 -22 -5 -21 -35z"/>
<path d="M3396 1638 c9 -52 14 -62 24 -52 14 14 0 84 -16 84 -10 0 -12 -9 -8
-32z"/>
<path d="M3308 1498 c-15 -26 -38 -76 -38 -85 0 -3 8 3 18 14 9 11 22 18 27
16 6 -2 11 14 12 37 2 46 0 48 -19 18z"/>
<path d="M3821 1431 c-1 -53 35 -114 77 -129 15 -6 67 -16 116 -22 48 -7 109
-18 135 -24 25 -7 65 -11 89 -8 38 4 42 7 42 31 0 36 -8 43 -32 30 -13 -7 -24
-7 -30 -1 -6 6 -49 8 -104 5 -57 -3 -94 -2 -94 4 0 14 194 27 198 13 5 -15 29
-12 48 7 16 17 16 18 -7 24 -24 7 -24 7 -1 8 12 1 22 5 22 10 0 5 3 17 7 27 5
13 3 15 -7 9 -10 -6 -12 -3 -8 13 5 19 2 22 -23 22 -27 0 -28 -2 -17 -20 7
-11 16 -20 20 -20 5 0 8 -5 8 -10 0 -10 -51 11 -80 34 -9 7 -33 9 -60 6 -41
-5 -43 -6 -17 -13 15 -4 27 -14 27 -23 0 -13 -9 -14 -57 -8 -32 3 -66 10 -75
15 -9 5 -43 9 -75 9 -59 0 -86 11 -96 40 -3 8 -6 -5 -6 -29z"/>
<path d="M4300 1314 c0 -14 4 -23 9 -20 5 3 7 15 4 26 -7 28 -13 25 -13 -6z"/>
<path d="M2845 1280 c-12 -19 24 -59 73 -84 51 -26 92 -61 92 -77 0 -6 4 -7
10 -4 10 6 -11 61 -43 107 -10 15 -39 37 -64 48 -52 23 -59 24 -68 10z"/>
<path d="M2715 1229 c-10 -16 1 -22 26 -14 17 6 19 9 8 16 -19 12 -26 11 -34
-2z"/>
<path d="M3170 1195 c-19 -19 -42 -38 -53 -41 -13 -4 -17 -12 -14 -25 3 -10 1
-19 -3 -19 -26 0 -20 -104 6 -114 9 -3 22 13 39 47 15 29 33 59 41 68 13 15
33 119 22 119 -2 0 -19 -16 -38 -35z"/>
<path d="M4775 1210 c-8 -9 -12 -19 -9 -23 9 -9 54 14 54 28 0 17 -28 14 -45
-5z"/>
<path d="M4320 1205 c-7 -9 -10 -18 -6 -22 3 -3 6 -1 6 5 0 5 12 15 28 20 23
9 24 11 6 11 -12 1 -27 -6 -34 -14z"/>
<path d="M2800 1176 c0 -17 100 -111 128 -120 15 -5 22 -15 22 -32 0 -14 4
-22 10 -19 6 3 10 1 10 -4 0 -6 14 -11 30 -11 25 0 30 4 30 25 0 29 -5 31 -27
10 -14 -14 -17 -12 -33 17 -9 18 -16 38 -13 44 2 5 -19 25 -47 43 -27 18 -50
38 -50 44 0 8 -3 8 -9 -1 -6 -10 -10 -10 -21 3 -15 19 -30 20 -30 1z"/>
<path d="M3291 1166 c-12 -15 -91 -171 -91 -180 0 -3 7 -6 15 -6 8 0 15 9 15
19 0 11 8 26 19 33 21 15 73 136 61 143 -4 3 -13 -1 -19 -9z"/>
<path d="M3930 1160 c20 -13 33 -13 25 0 -3 6 -14 10 -23 10 -15 0 -15 -2 -2
-10z"/>
<path d="M3342 1053 c-12 -23 -26 -44 -32 -48 -17 -10 -11 -25 10 -25 13 0 18
5 13 16 -3 8 4 29 16 45 12 17 20 35 18 42 -2 7 -13 -7 -25 -30z"/>
<path d="M3430 1044 c0 -8 11 -14 25 -14 14 0 25 4 25 9 0 5 -11 11 -25 13
-17 4 -25 1 -25 -8z"/>
<path d="M5108 1053 c7 -3 16 -2 19 1 4 3 -2 6 -13 5 -11 0 -14 -3 -6 -6z"/>
<path d="M5227 844 c-3 -4 -85 -7 -181 -8 -154 -1 -200 -6 -185 -20 2 -2 45
-5 94 -7 50 -1 102 -8 117 -16 15 -7 38 -13 53 -13 14 0 25 -4 25 -10 0 -12
-32 -12 -170 0 -58 5 -172 14 -255 20 -292 19 -340 16 -296 -24 14 -13 55 -20
167 -31 82 -7 235 -22 339 -31 270 -25 458 -21 875 21 85 8 190 18 233 21 l77
6 0 29 0 30 -102 -7 c-57 -3 -120 -10 -140 -15 -20 -5 -118 -12 -218 -14 -100
-3 -186 -8 -191 -11 -6 -3 -26 -7 -47 -10 -20 -2 -47 -6 -58 -9 -33 -7 -49 19
-37 60 6 19 8 36 5 39 -7 8 -97 7 -105 0z"/>
</g>
</svg>
